<svg id="8ea2b57c-b153-4f59-8c72-ac364f6d9cd9" data-name="Layer 1" xmlns="http://www.w3.org/2000/svg" width="16.5" height="11.6" viewBox="0 0 16.5 11.6"><defs><style>.\32 d5b89f8-f9a6-45e0-a5b3-d608815a8e9a{fill:#5eb549}.\31 0-42f5-4cc8-97e1-89fbd2c08f5c{fill:#006838}</style></defs><title>glass2</title><path class="2d5b89f8-f9a6-45e0-a5b3-d608815a8e9a" d="M11.9 0l1.5.5A6.8 6.8 0 0 1 15.8 2a1.3 1.3 0 0 1 0 2c-.7.6-2.5 1-5.3.2l.8.8a5 5 0 0 1 1.1 1.7.8.8 0 0 1-.6 1.2c-.6.1-1.8-.3-3.2-1.8a10.2 10.2 0 0 1 .6 1.3 5 5 0 0 1 .3 2.5.9.9 0 0 1-1.4.9c-.7-.3-1.5-1.6-1.3-4.2a7.8 7.8 0 0 1-.6 1.7 4.7 4.7 0 0 1-2.3 2.4 2.1 2.1 0 0 1-1.5.1 1.4 1.4 0 0 1-.8-1.1C1.4 8.8 2.2 7 4.8 5l-1.3.4a6.3 6.3 0 0 1-2.3.2C-.1 5.4-.5 4.2 3.8 2.3a8.7 8.7 0 0 1-2.6-.1c-.9-.3-1-1 2.2-2.1"/><path class="10d50f91-42f5-4cc8-97e1-89fbd2c08f5c" d="M11.9 0a11 11 0 0 1 3.5 1.6 3.1 3.1 0 0 1 1 1.1 1.2 1.2 0 0 1 .1.6 1.1 1.1 0 0 1-.1.5A2.9 2.9 0 0 1 14 4.9a9.6 9.6 0 0 1-3.4-.4v-.2l1 1 .8 1a2.9 2.9 0 0 1 .4 1 1 1 0 0 1 0 .5.7.7 0 0 1-.2.4l-.4.2h-1l-.5-.2-.5-.3-.6-.4-.5-.5-.4-.4v-.2l.7 1.4a6.7 6.7 0 0 1 .3 1.4 3.2 3.2 0 0 1-.1 1.4 1.6 1.6 0 0 1-.3.6l-.5.3a1.2 1.2 0 0 1-1.2-.3l-.5-.5-.1-.6a5.7 5.7 0 0 1-.3-1.5 8.5 8.5 0 0 1 0-1.6h.2a7.8 7.8 0 0 1-.6 2 5.3 5.3 0 0 1-1.2 1.6 3.4 3.4 0 0 1-1.7.9h-.9l-.8-.4-.3-.3-.2-.4a2.2 2.2 0 0 1-.1-.8 3.1 3.1 0 0 1 .2-.9l.4-.8.7-.9.6-.7L4.6 5v.2l-1.4.4-1.2.2H.8a1 1 0 0 1-.8-.6 1 1 0 0 1 .3-.8L.7 4l.5-.4a13.9 13.9 0 0 1 2.5-1.3H.9L.6 2a.4.4 0 0 1-.1-.3.5.5 0 0 1 .1-.2l.2-.3.4-.2.4-.2.4-.2.5-.2 1-.3-.9.3-.4.2-.4.2-.5.2-.3.2-.2.2a.4.4 0 0 0-.1.2.3.3 0 0 0 .1.2l.3.3h3.2l-.4.2a14 14 0 0 0-2.3 1.3l-.5.4-.3.4a.7.7 0 0 0-.2.6 1.8 1.8 0 0 0 1.7.4 10.3 10.3 0 0 0 2.6-.6l.6-.2L5 5a10.7 10.7 0 0 0-2.5 2.7l-.4.7a2.4 2.4 0 0 0-.2.7 1.8 1.8 0 0 0 .1.7v.3l.2.2.5.3h.9A3.1 3.1 0 0 0 5 9.9a5.5 5.5 0 0 0 1.1-1.5 8.1 8.1 0 0 0 .7-1.8 7 7 0 0 0 .4 2.8l.4.5.3.4a.8.8 0 0 0 .7.2c.5-.1.7-1 .6-1.8a8.1 8.1 0 0 0-.8-2.6l-.3-.5.4.4.5.5.5.4.4.3.5.3.5.2h.8l.3-.2a.5.5 0 0 0 .1-.3.8.8 0 0 0 0-.3 2.4 2.4 0 0 0-.3-.9l-.7-.9-.9-.9-.3-.2h.4a10.1 10.1 0 0 0 3.3.5l1.4-.2.5-.3.4-.4a1 1 0 0 0 .2-.5 1 1 0 0 0-.1-.4 2.7 2.7 0 0 0-.8-1.1A10.3 10.3 0 0 0 11.9 0z"/></svg>