<svg id="e31f7d0a-cea7-4284-a60c-1432f3269c24" data-name="Layer 1" xmlns="http://www.w3.org/2000/svg" width="48.9" height="53.1" viewBox="0 0 48.9 53.1"><defs><style>.\31 ff07c3f-5b0b-4e48-9174-614b6d1018fe{fill:url(#9ae03ac9-80bf-414b-832d-31028cc09fd4)}.\34 e4f7b0c-7465-4a4c-b968-2ceda5d917d8{fill:#28421d}</style><linearGradient id="9ae03ac9-80bf-414b-832d-31028cc09fd4" x1="439.1" y1="940.47" x2="436.05" y2="903.81" gradientTransform="rotate(-46.6 -806.224 954)" gradientUnits="userSpaceOnUse"><stop offset="0" stop-color="#006838"/><stop offset="1" stop-color="#009444"/></linearGradient></defs><title>tree3</title><path class="1ff07c3f-5b0b-4e48-9174-614b6d1018fe" d="M12.4 35.6s-3.6 14.3 9.2 15 15-8.5 13.7-14.6c0 0 22.9-1.8 3.4-20.8 0 0-5-21-26.1-9s-6.5 27.7-.2 29.4z"/><path class="4e4f7b0c-7465-4a4c-b968-2ceda5d917d8" d="M34.5 36.7a2.1 2.1 0 0 1 1.7 0 2 2 0 0 1 .8.7l.2.5a2.3 2.3 0 0 1 .1.6 4.6 4.6 0 0 1 0 .5v.5l-.2.4-.3.4-.3.3-.3.3-.7.5v-.8l.4.4.5.5a2.2 2.2 0 0 1 .3.7 1.7 1.7 0 0 1 0 .8v.4l-.2.4-.6.5-.7.3h-.7l.2-.5a3.3 3.3 0 0 0 .1-.5l.6.5.4.6a2.3 2.3 0 0 1 .3.9 1.8 1.8 0 0 1 0 .5 1.5 1.5 0 0 1-.2.6l-.4.5-.5.3h-2.5l.4-.4.4-.5.3.4.2.5a3.2 3.2 0 0 1 .1 1 2.7 2.7 0 0 1 0 .6 1.9 1.9 0 0 1-.2.6l-.4.6-.6.5-.6.3h-1.2l-.5-.2-.4-.4-.4-.3-.4-.2-.3-.3.4-.2.4-.2a3.5 3.5 0 0 1-.1.7l-.2.7a2.1 2.1 0 0 1-.4.7l-.3.3-.4.2h-.7l-.7-.3-.4-.6-.4-.5.5-.2a2.9 2.9 0 0 1-.3.9l-.3.4-.2.2h-.7l-.4-.3-.3-.3-.3-.4.3.3.3.2h.9l.2-.3a2.6 2.6 0 0 0 .1-.8v-.7l.6.5.4.4.4.3h1l.2-.4v-.6a3.2 3.2 0 0 0 0-.5v-1.1l.5.3.5.3.3.3.3.2.3.2H32l.2-.2v-.4a1.5 1.5 0 0 0 0-.3 3 3 0 0 0-.1-.7v-.7l-.3-.7-.4-.6.7.2.7.2h1.7a.3.3 0 0 0 0-.2 1.3 1.3 0 0 0-.1-.4l-.3-.6-.3-.4-.4-.4-.4-.4h1.6l.4-.2.3-.2h.2a.4.4 0 0 0 0-.1.5.5 0 0 0 0-.2v-1l-.3-.4-.3-.3-.6-.5.3-.2.3-.2.7-.4.3-.2.3-.2.2-.3.2-.3.2-.3v-.4a1.5 1.5 0 0 0 0-.4 2 2 0 0 0-.1-.4 1.8 1.8 0 0 0-.5-.6 1.9 1.9 0 0 0-1.7-.3zM23.8 50.7a2 2 0 0 1 .1.9 1.6 1.6 0 0 1-.5.8 2.2 2.2 0 0 1-1 .5h-1.1l-.5-.2-.4-.3-.4-.2-.3-.4-.3-.4-.2-.4-.4-.8h.8l-.5.4-.6.3-.8.2-.9-.2-.4.1-.4-.4a2.2 2.2 0 0 1-.4-.8 3.3 3.3 0 0 1-.1-.7v-.7l.5.4.5.3-.7.3-.8.2h-.8l-.5-.2-.5-.4a1.5 1.5 0 0 1-.3-.5 1.6 1.6 0 0 1-.2-.6 1.5 1.5 0 0 1 0-.5v-.9l.2-.4.2-.3.2-.3v.2l.2.4.4.6h-1l-1-.2-.5-.2-.5-.4-.5-.5a1.9 1.9 0 0 1-.3-.7 2.6 2.6 0 0 1-.1-.7 2.3 2.3 0 0 1 .1-.7v-.5l.3-.5.3-.4.4-.3.4-.3.4-.2v1l.1-.2-.6-.4-.5-.6a1.1 1.1 0 0 1-.2-.4 1.5 1.5 0 0 1 0-.5 1.4 1.4 0 0 1 .4-.9 2 2 0 0 1 .6-.5l.7-.2h.6v.6a2.4 2.4 0 0 1-.6-.7 1.1 1.1 0 0 1-.2-.5 1.1 1.1 0 0 1 0-.3v-.6l.2-.2h.7l-.4.2h-.1v.2a.5.5 0 0 0 0 .2v.2l.2.3.6.5.6.4h-1.4l-.5.3-.2.2v.3a.3.3 0 0 0 0 .2v.3l.3.3.4.3.4.5.5.2h.5l-.5.3-.5.4-.3.3-.3.3-.2.3-.2.3-.2.3v.3a.7.7 0 0 0 0 .3.7.7 0 0 0 0 .2v.2l.2.2.3.2h.3l.7.2h2.2l-.4.6-.4.7v.5l-.2.5v.2a.4.4 0 0 0 0 .2.2.2 0 0 0 0 .1h1.2l.5-.2.6-.2.5-.3a9.3 9.3 0 0 0-.2 1.1v1l.2.4h.9l.4-.2.4-.3.3-.2.3-.2.2.7.2 1.1.2.4.2.4.2.3.3.3.3.2.3.2h.8l.8-.3a1.8 1.8 0 0 0 .6-.7 1.4 1.4 0 0 0 .1-.7zM13.4 35a4.6 4.6 0 0 1-1.6.6h-1.2l-.3-.2-.3-.4-.2-.4-.2-.4v-.8a3.4 3.4 0 0 1-.3-.4v-.8l.7.4-.6.3-.7.1H8l-.7-.3-.3-.3-.2-.3a2.4 2.4 0 0 1-.2-.7 5.5 5.5 0 0 1 0-.7v-.5l.4.3.5.3-.7.4-.7.2H4.8l-.4-.3-.4-.4a1.2 1.2 0 0 1-.2-.5 1.5 1.5 0 0 1-.1-.5v-1.4l.6-.3h.1l.3.3.4.4-.5.3H2.1l-.5-.3-.4-.5a1.6 1.6 0 0 1-.2-.6 2 2 0 0 1 0-.6v-.6l.2-.5.3-.4.3-.4.2-.4.3-.3.3.9H2l-.6-.3-.6-.4-.2-.3v-.5a1.1 1.1 0 0 1-.1-.8 2.2 2.2 0 0 1 .5-.6l.5-.4.5-.2v.5l-.9-.4-.3-.4v-.2a.7.7 0 0 1 0-.3v-.4l.3-.3.4-.2h.7l-.4.2-.3.2-.2.3v.2a.6.6 0 0 0 0 .1l.3.2.7.3H3l-.3.2-.3.2-.5.3-.4.4v.4a.3.3 0 0 0 0 .2.2.2 0 0 0 0 .1l.4.2H4l-.4.4-.4.4-.2 1-.2.3-.2.3-.2.3v.5a.5.5 0 0 0 0 .3v.2l.2.2h2.1l.7-.3.7-.3-.3.7-.3.7-.2.5v.7a.4.4 0 0 0 0 .2h1.2l.5-.2 1-.4v2.1a1.3 1.3 0 0 0 .1.4h1l.4-.2.7-.3V32.8a2.8 2.8 0 0 0 0 .4v.7a1.5 1.5 0 0 0 .1.3v.3l.2.3.4.2.3.2h.7zM2.7 19.4a2.9 2.9 0 0 1-1.7-.1 1.9 1.9 0 0 1-.7-.6l-.2-.5a1.8 1.8 0 0 1-.1-.6 3 3 0 0 1 .1-.5l.2-.5.3-.4.3-.3.4-.3.4-.2.8-.3v.7l-.5-.5-.3-.6a2 2 0 0 1-.1-.7 1.6 1.6 0 0 1 .2-.8V13l.3-.2.7-.2h1.4l-.3.4-.3.4-.3-.7a3.6 3.6 0 0 1-.2-.7 2.4 2.4 0 0 1 0-.8 1.3 1.3 0 0 1 .1-.4l.3-.4.4-.3h2l.6.4-.4.3-.4.4v-.7a4.6 4.6 0 0 1-.1-1 2.5 2.5 0 0 1 .1-.5l.2-.5.3-.5.4-.4.5-.2h1.2l.4.6.4.2.7.5-.7.5a4.9 4.9 0 0 1 0-.7 4.1 4.1 0 0 1 0-.7 2.2 2.2 0 0 1 .2-.7l.2-.3.3-.2h.7l.6.2.5.3.5.4-.4.3a3.2 3.2 0 0 1 0-.9 1.2 1.2 0 0 1 .1-.4v-.3h.6l.4.2.4.2.4.3-.4-.2h-.9a1.1 1.1 0 0 0 0 .3 3 3 0 0 0 .1.7l.2.6-.7-.3-.5-.3-.4-.2h-.9a1.4 1.4 0 0 0-.1.4 3.1 3.1 0 0 0 0 .5v.8l.2 1.1-1-.6-.5-.4-.3-.2H6.9v.5a1.3 1.3 0 0 0 0 .3 3.4 3.4 0 0 0 0 .7v.7l.2.7.2.7-.7-.4-.5-.3-.5-.3-.5-.2h-.6a1.3 1.3 0 0 0 0 .4v.5l.2.5.2.5.3.5-.5.1H2.5a.9.9 0 0 0 0 .4l.2.6.3.4.2.3.3.3h-.7l-.7.2h-.3l-.3.2-.3.2-.3.4-.2.3v.3a1.1 1.1 0 0 0 0 .4 1.6 1.6 0 0 0 .1.3 1.4 1.4 0 0 0 .5.6 2.5 2.5 0 0 0 1.4.5zM13.5 6.8a3.2 3.2 0 0 1-.4-1.7 1.8 1.8 0 0 1 .3-.8l.2-.3.4-.3.4-.2h2.1l.8.4-.3.5-.3.2a4 4 0 0 1 0-.7 2.6 2.6 0 0 1 .2-.6l.4-.6a1.4 1.4 0 0 1 .6-.5h.8l.7.2.6.4.5.4-.5.2-.5.2a5 5 0 0 1 .1-.7l.2-.7.4-.7.3-.3.5-.2h1l.4.2.3.3.2.3.1.3.4.6-1.1.2v-.5l.2-.4.5-.9.3-.4.4-.3.5-.3h1.2l.5.3.2.2.2.2.3.4.2.4.2.4v.9h-.6l.4-.6.5-.5.6-.3h.8a1.3 1.3 0 0 1 .7.5 1.9 1.9 0 0 1 .3.7 4 4 0 0 1 0 .7v.4l-.4-.2.7-.5h1v.5a1.4 1.4 0 0 1 0 .4v.5l-.2.4v-.4a3.5 3.5 0 0 0 0-.4 1.4 1.4 0 0 0-.1-.4h-.6l-.6.5-.4.5v-.5V2.5h-.9l-.3.2-.4.3-.3.4-.2.5-.2.5-.2-.5-.2-.5V3l-.2-.4-.2-.3-.3-.3-.2-.2h-1l-.2.2H24l-.3.6v.7l-.2.7v.8l-.4-.7-.4-.6-.6-.5-.3-.4h-.7l-.2.3-.2.5V5l-.7-.4-.4-.4-.4-.3-.4-.3H18l-.2.3-.2.4v1.2l-.6-.4-.6-.4-.4-.2h-2l-.2.2a1.6 1.6 0 0 0-.3.6 3.1 3.1 0 0 0 0 1.5z"/><path class="4e4f7b0c-7465-4a4c-b968-2ceda5d917d8" d="M30.7 4.4l1.5-.7.6-.2h.5l.2.2v1.5a2.8 2.8 0 0 1 0 .4c0 .2 0 .5-.1.8h-.1l.5-.4.6-.3h.6l.6.2.2.3a.6.6 0 0 1 .1.3 1.8 1.8 0 0 1 0 .6l-.2.6-.3.5-.2-.3-.3-.2.7-.3h1.7l.3.3a.7.7 0 0 1 .1.4.9.9 0 0 1 0 .4l-.2.3-.2.3-.2.3-.5.5-.2-.4-.4-.4h2.2l.4.2.4.2a.9.9 0 0 1 .2.4 1 1 0 0 1 0 .4 1.1 1.1 0 0 1-.1.4v.4l-.3.3-.3.3-.5.3-.7.5-.2-.6h1.2l.6.3.2.2v.3a.7.7 0 0 1-.1.6l-.4.4-.5.3-.6.2V14l.9.2.3.2v.2a.3.3 0 0 1 0 .2v.2h-.1l-.3.2-.4.2h-.4l.3-.2.3-.2.2-.2h.1a.3.3 0 0 0 0-.1h-1.8l.6-.3.4-.3.4-.3h.3a.1.1 0 0 0 0-.1h-2.6l.4-.3.4-.3.6-.5.2-.2.2-.2.2-.2h.1a.4.4 0 0 0 0-.2.3.3 0 0 0 0-.1h-2.7l-.7.2.5-.5.5-.5.4-1.9.3-.4v-.1h-1.3l-.5.2-.5.2.3-.4.3-.4.2-.4V7a1 1 0 0 0 0-.3h-.8l-.4.2-.2.1-.3.2V5.9a2.5 2.5 0 0 0 0-.3v-.4-.3a1.2 1.2 0 0 0 0-.3v-.4h-.8zM38.7 15.7a2.9 2.9 0 0 1 1.8-.6 2.7 2.7 0 0 1 1.2.3l.6.4.5.5.4.6.3.6a2.4 2.4 0 0 1 .2.6l.3.6v.6a4.3 4.3 0 0 1 .1.6c0 .4 0 .7-.1 1.1l-.7-1h.8l.8.3.9.5a3 3 0 0 1 .8 1l.3.6a1.8 1.8 0 0 1 .1.6 4.3 4.3 0 0 1 0 1.1l-.2.8-.2.4-.2.3v-.3l-.2-.5-.4-.8.8.2.8.4.8.8.4.6a2.5 2.5 0 0 1 .3.8 2.6 2.6 0 0 1 0 .9 2.4 2.4 0 0 1-.2.8l-.3.6-.4.5-.2.2h-.2l-.4.2-.8.2v-.7a6.1 6.1 0 0 0 .1-.9l.7.4.4.4a3 3 0 0 1 .6 1.1 2.5 2.5 0 0 1 .1.8 2.7 2.7 0 0 1-.2 1 3.3 3.3 0 0 1-.5 1 3.9 3.9 0 0 1-.9.9l-1 .5-.9.2h-1.5l-.5-.2-.5-.3-.4-.3-.4-.3.7-.2.7-.2-.3.7-.5.7-.7.7-.5.3-.6.2h-1.1l-.8-.3-.7-.7-.3-.2-.3-.2h.9a4 4 0 0 1-.5 1l-.4.5-.3.2-.3.2v-1l.2-.4a2.8 2.8 0 0 0 .2-.8v-.7l.4.2.6.2.6.3.5.4h1.4l.4-.4.3-.5.2-.5v-1.4l.6.4.6.3.5.3.4.2.4.2h1.7l.3-.2.2-.3.2-.3v-.4a1.7 1.7 0 0 0 0-.4 2.1 2.1 0 0 0-.2-.8l-.2-.4-.2-.3.1-.2-.4-.3-.6-.4h.2l.5-.2.5-.2h.2l.3-.2.3-.2.4-.4v-.8a.2.2 0 0 0 0-.1v-.4l-.4-.4-.5-.3-.6-.2-.6-.2h-.5l.3-.6.3-.6.3-.5.2-.5a2.2 2.2 0 0 0 0-.5v-1l-.4-.3-.5-.2h-1.9v-2a3.2 3.2 0 0 0 0-.5v-.5a2.9 2.9 0 0 0-.1-.5 2.5 2.5 0 0 0-.1-.5l-.2-.5-.3-.4-.1-.3-.4-.3-1-.4a3.8 3.8 0 0 0-1.9.1zM28.5 36.9a2.3 2.3 0 0 1 1.6.4 1.7 1.7 0 0 1 .6.8 1.7 1.7 0 0 1 .1.5 2.6 2.6 0 0 1-.1.5l-.2.5v.2l-.2.2-.4.3-.4.2h-1.7l.2-.3v.1l.3.6a2.3 2.3 0 0 1 .2.6 1.8 1.8 0 0 1 0 .7 1.4 1.4 0 0 1-.4.7l-.3.2h-2.1l.4-.3.3-.3.2.5a3.7 3.7 0 0 1 .1.7 2.3 2.3 0 0 1-.2.8l-.2.4-.4.3-.5.2h-.9l-.4-.2-.3-.2-.3-.2-.2-.3-.2-.3.5-.2.5-.2a4.6 4.6 0 0 1 0 .5v.5a3.7 3.7 0 0 1-.2.9l-.2.5-.3.4-.5.4-.6.2h-.8l-.6-.2-.3-.2-.2-.2-.4-.4v-.5l-.2-.4-.2-.9h.8l-.4.6-.5.5-.7.3h-.5l-.5-.2a1.2 1.2 0 0 1-.6-.7 1.5 1.5 0 0 1-.1-.7l.2-.6.2-.3.2-.3.2.2h.1l-.9.2h-.7v-.3a.9.9 0 0 1-.1-.2.6.6 0 0 1 0-.2l.2-.4.3-.3.3-.3-.2.3-.2.3a1.1 1.1 0 0 0-.1.3.6.6 0 0 0 0 .2h.6l.7-.2.3-.2.3-.2-.3.6v.5a3.2 3.2 0 0 0 0 .5v.4h.5l.4-.2.4-.3.3-.4.5-1a5.9 5.9 0 0 0 .2 1v.3l.2.3.1 1.1h.2l.2.2h1.1l.2-.2a2.7 2.7 0 0 0 .2-.7V44a3.3 3.3 0 0 0 0-.3V43c0-.3-.1-.7-.1-.7l.5.6.5.5.4.4.4.3h.7a1.2 1.2 0 0 0 .1-.4 2.7 2.7 0 0 0 0-.5v-.8l-.2-.6-.2-.6.5.3.5.2.6.3h1.2a1 1 0 0 0 0-.4 1.7 1.7 0 0 0-.1-.4l-.2-.4-.2-.3-.2-.3h2.4l.3-.2.3-.2.2-.3v-.9a1 1 0 0 0 0-.4 1.4 1.4 0 0 0-.3-.7 2 2 0 0 0-1.3-.6zM13.9 27a2.9 2.9 0 0 1-.3 1.7 1.8 1.8 0 0 1-.6.6h-1.5l-.4-.3-.3-.3-.3-.4v-.8a5.2 5.2 0 0 1-.1-.8l.3.3-.5.4-.6.2h-.8l-.7-.4-.2-.3a.9.9 0 0 1-.1-.4 1.9 1.9 0 0 1 0-.7l.2-.7.2-.3.2-.3.2.5.3.4H7.4l-.8-.2-.3-.2-.3-.5a1.1 1.1 0 0 1-.1-.5 1 1 0 0 1 .1-.4l.2-.4v-.3l.3-.3.3-.2.3-.2.4-.2v1h-.7l-.8-.5-.4-.3-.4-.4-.3-.5a1.5 1.5 0 0 1-.1-.6 1.4 1.4 0 0 1 .1-.6 1.5 1.5 0 0 1 .3-.5l.2-.2.2-.2.4-.2.4-.2h1.3v.8l-.6-.6-.5-.5a1.9 1.9 0 0 1-.3-.6 1.1 1.1 0 0 1 0-.4.8.8 0 0 1 .1-.4 1.1 1.1 0 0 1 .6-.6l.7-.2h1.1l-.2.7a2.3 2.3 0 0 1-.4-.8 1 1 0 0 1 0-.5v-.2l.2-.2h.9l.4.2.3.3H8.6a.4.4 0 0 0 0 .1v.3l.4.6.2.3.2.2H7.3a.2.2 0 0 0 0 .1v.2l.2.3.3.3.4.3.5.5.5.2H7.1l-.3.8-.2.2h-.2v.2a.5.5 0 0 0 0 .4v.2l.2.2.2.2.6.3h2.2l-.6.7-.6.4-.4.3-.4.3v.2h-.2a.1.1 0 0 0 0 .1H10l-.3.4-.3.5-.2.4-.2.7a1.2 1.2 0 0 0 0 .3h1l.4-.2.3-.2.3-.2v.3a3.1 3.1 0 0 0 0 .3 7 7 0 0 0 0 .7v.7l.2.3.2.3.3.2h1l.6-.4a2.4 2.4 0 0 0 .6-.8zM19.7 13.6a2.9 2.9 0 0 1 .6-1.6 1.7 1.7 0 0 1 .7-.6h1.5l.4.2.4.4.3.3.2.4.2.4.3.8-.7-.2.5-.5.6-.4.7-.2.8.2.3.3.3.3a2.3 2.3 0 0 1 .3.7 4.3 4.3 0 0 1 .1.7v.6l-.4-.3-.5-.1h-.1l.6-.4.7-.3h1.3l.4.3.4.4a1.2 1.2 0 0 1 .2.5 1.5 1.5 0 0 1 0 .5v1.1l-.2.3-.2.3-.8-.9.5-.2h2l.5.2.5.4a1.4 1.4 0 0 1 .4.5 2.1 2.1 0 0 1 .2.6 1.9 1.9 0 0 1 0 .6v.5l-.2.5-.3.4-.3.4-.4.3-.4.3v-.5l-.2-.4h.7l.6.2.6.5.2.4a.8.8 0 0 1 .1.4 1.4 1.4 0 0 1-.2.8 1.6 1.6 0 0 1-.5.5l-.6.3h-1v-.2l.7.6.3.4v.3a.6.6 0 0 1-.1.3v.1l-.2.2-.4.2H31l.3-.2h.2a.4.4 0 0 0 0-.1h-.1l-.2-.3-.7-.4.5-.2.4-.3v-1.6a.2.2 0 0 0 0-.1h.2l-.4-.2-.5-.2h-1.5l.4-.4.4-.4.3-.3.3-.3.2-.3.2-.3v-.9a.6.6 0 0 0 0-.3.5.5 0 0 0-.1-.2v-.2h-2.2l-.7.3-.7.3.4-.7.3-.7v-1.3a.3.3 0 0 0 0-.2h-.8l-.5.2-.5.3-.5.3v-2.1a1.3 1.3 0 0 0-.1-.4h-.7l-.4.2-.4.3-.3.3-.3.3v-1l-.2-.7v-.4l-.2-.3-.2-.3-.2-.3-.3-.2h-1l-.7.3a2.8 2.8 0 0 0-1 1.2zM24 26.8a4.4 4.4 0 0 1 1.4.7l.5.5a.8.8 0 0 1 .1.3.8.8 0 0 1-.1.3l-.2.2-.2.2h-2v-.2l.5.4.3.5a1.3 1.3 0 0 1 .2.5.7.7 0 0 1-.1.5l-.2.2h-.9l-.5-.2-.2-.2-.2-.2.4-.4.2.7.2.6a1.9 1.9 0 0 1 0 .7.8.8 0 0 1-.1.3l-.2.2h-.7l-.3-.2-.3-.2-.2-.2-.2-.3-.2-.2-.2-.3h.6v.9a3.9 3.9 0 0 1 0 .9v.2l-.2.4-.3.3h-.7l-.3-.2h-.2v-.3l-.2-.3-.2-.4-.3-.4v-.8h.5v.6l-.2.6-.3.5-.2.2h-.6a.5.5 0 0 1-.4-.3 2.1 2.1 0 0 1-.2-.5v-1.3h.3l-.3.8-.2.3h-.8v-.4h.4v-.2l.2-.7V32h.4v-2.3l1.4.5.2.5v.9l.2.3.2.2h.6v-.4a3.7 3.7 0 0 0 0-.6V29l.4.6.4.6.3.4.5.4h.4a1.1 1.1 0 0 0 0-.3v-.4l-.2-.5-.2-.5-.3-.5.4.3.4.3.4.2.4.2h.5v-.3l-.2-.3-.3-.3-.2-.2-.2-.2h2.8v-.4a.5.5 0 0 0 0-.2.9.9 0 0 0-.2-.4 3.4 3.4 0 0 0-1.3-.7z"/><path class="4e4f7b0c-7465-4a4c-b968-2ceda5d917d8" d="M38.8 23.8a3.4 3.4 0 0 1 .4-1.5 1.3 1.3 0 0 1 .5-.5h.8l.4.3v.4a1.3 1.3 0 0 1 .1.4 1.5 1.5 0 0 1 0 .4v.4l-.2.3-.5.5-.2-.3h1.2l.7.2a.8.8 0 0 1 .3.5.6.6 0 0 1 0 .3v.2l-.5.3-.5.2h-.8a2.6 2.6 0 0 0 0-.3v-.2l.7.2.5.4.5.4.2.3a.4.4 0 0 1 0 .3v.3l-.3.2H40v-.6l.4.2.4.2.7.5.3.3.2.4a.8.8 0 0 1 .1.4.5.5 0 0 1-.1.3l-.2.2h-1.9l-.8-.2.2-.4.5.4.4.4.3.5a.5.5 0 0 1 0 .2.3.3 0 0 1-.1.2l-.4.2h-.6l-.6-.2-.6-.2v-.1l.5.7v.3a.3.3 0 0 1 0 .2h-.4l-.3-.2-.4-.2.3.2h.8a.1.1 0 0 0 0-.1v-.3l-.7-.6-.5-.4.6.2h1.4a.1.1 0 0 0 0-.1l-.2-.3-.3-.3-.4-.3-.8-.6h3a.2.2 0 0 0 0-.1h-.1v-.1l-.3-.2-.5-.4-.3-.2-.3-.2-.6-.4-.6-.3h2.8v-.1l-.2-.2-.4-.2-.4-.2-.5-.2-.5-.2h2.2a.1.1 0 0 0 0-.1h-1.9l.5-.3.5-.4.2-.3v-.9a1.2 1.2 0 0 0 0-.3.7.7 0 0 0 0-.3l-.2-.2h-.5l-.5.3a2.4 2.4 0 0 0-.4.9z"/></svg>