<?xml version="1.0" encoding="utf-8"?>
<!-- Generated by IcoMoon.io -->
<!DOCTYPE svg PUBLIC "-//W3C//DTD SVG 1.1//EN" "http://www.w3.org/Graphics/SVG/1.1/DTD/svg11.dtd">
<svg version="1.1" xmlns="http://www.w3.org/2000/svg" xmlns:xlink="http://www.w3.org/1999/xlink" width="32" height="32" viewBox="0 0 32 32">
<g>
</g>
	<path d="M19.998 31.469v-4.209c4.648-1.651 7.996-6.044 7.996-11.26 0-5.214-3.348-9.608-7.996-11.26v-4.209c6.893 1.78 11.994 8.019 11.994 15.469s-5.101 13.69-11.994 15.469zM16 31.992l-7.996-7.996h-5.997c-1.105 0-1.999-0.894-1.999-1.999v-11.994c0-1.105 0.894-1.999 1.999-1.999h5.997l7.996-7.996c0 0 1.999-0.25 1.999 1.999 0 4.556 0 23.878 0 27.986 0 2.249-1.999 1.999-1.999 1.999zM14.001 8.004l-3.998 3.998h-5.997v7.996h5.997l3.998 3.998v-15.992zM25.995 16c0 3.721-2.553 6.821-5.997 7.713v-4.269c1.191-0.693 1.999-1.968 1.999-3.444 0-1.476-0.808-2.751-1.999-3.444v-4.269c3.444 0.892 5.997 3.992 5.997 7.713z" fill="#000000"></path>
</svg>
