<?xml version="1.0" encoding="utf-8"?>
<!-- Generated by IcoMoon.io -->
<!DOCTYPE svg PUBLIC "-//W3C//DTD SVG 1.1//EN" "http://www.w3.org/Graphics/SVG/1.1/DTD/svg11.dtd">
<svg version="1.1" xmlns="http://www.w3.org/2000/svg" xmlns:xlink="http://www.w3.org/1999/xlink" width="32" height="32" viewBox="0 0 32 32">
<g>
</g>
	<path d="M31.975 18.983l-2.981 2.983-2.983-2.983-2.983 2.983-2.981-2.983 2.981-2.983-2.981-2.983 2.981-2.983 2.983 2.983 2.983-2.983 2.981 2.983-2.981 2.983 2.981 2.983zM16.017 31.992l-7.996-7.996h-5.997c-1.105 0-1.999-0.894-1.999-1.999v-11.994c0-1.105 0.894-1.999 1.999-1.999h5.997l7.996-7.996c0 0 1.999-0.25 1.999 1.999 0 10.846 0 26.607 0 27.986 0 2.249-1.999 1.999-1.999 1.999zM14.018 8.004l-3.998 3.998h-5.997v7.996h5.997l3.998 3.998v-15.992z" fill="#000000"></path>
</svg>
