<svg id="2aa6bfea-6811-42c6-bb9d-a9e1abe0e08d" data-name="Layer 1" xmlns="http://www.w3.org/2000/svg" width="49.4" height="54.4" viewBox="0 0 49.4 54.4"><defs><style>.\31 a3244ae-05bb-4416-8331-4ef9816eb29e{fill:url(#4997a857-a221-45df-badb-8e476e572df1)}.\39 5bd6faf-f7cd-41e0-989c-28975b22d9d6{fill:#28421d}</style><linearGradient id="4997a857-a221-45df-badb-8e476e572df1" x1="-7.03" y1=".58" x2="47.67" y2=".58" gradientTransform="matrix(.4 .92 -.92 .4 16.32 8.15)" gradientUnits="userSpaceOnUse"><stop offset="0" stop-color="#006838"/><stop offset="1" stop-color="#009444"/></linearGradient></defs><title>tree1</title><path class="1a3244ae-05bb-4416-8331-4ef9816eb29e" d="M37.4 48.1h-.3l.7-.5c7.1.6 15.4-11.2 8.8-14.7 8.3-7.7-7.1-21.1-15.7-19.9l-.3-.3A14.4 14.4 0 0 0 21.5.5c-2.2-.6-8.2.8-7.9 1.6l-.6.5.2-.8c-4.5 4-10.8 16-5.9 22v.4c-9.4 2-5.8 18 2.9 19 .4 3.6 1 6.8 5.7 7.3a10 10 0 0 0 7.7-2.3c-.6 6.7 12.4 7.2 13.8-.1z"/><path class="95bd6faf-f7cd-41e0-989c-28975b22d9d6" d="M29.8 14.4a2.7 2.7 0 0 1 .9-1.9l.5-.4.7-.3h1.5l.7.2.6.3.5.4.5.5.4.5.3.5.5 1-.5-.2-.6-.2.7-.4.8-.3h1l1.2.4.5.4.4.4a4.1 4.1 0 0 1 .5.9l.4.8v.8l-.7-.5-.6-.4.8-.4.9-.2h1.1l.7.2.7.4.5.6a2.4 2.4 0 0 1 .3.7 1.9 1.9 0 0 1 .2.6v1a2.8 2.8 0 0 1-.1.5l-.3.8-.6-.7-.6-.4H46l.7.2.7.4.8.4a4.2 4.2 0 0 1 .6.8 4.3 4.3 0 0 1 .3 1 3.1 3.1 0 0 1 .1.9v.8l-.2.7v.3l-.2.3-.4.5-.4.4-.4.4a8 8 0 0 0-.3-1.4l.8.3.7.5a3.1 3.1 0 0 1 .6.9 1.8 1.8 0 0 1 .2.6 1.9 1.9 0 0 1 0 .8 2.2 2.2 0 0 1-.6 1.3 2.2 2.2 0 0 1-.9.6l-.8.2h-1l.3-.7a2.4 2.4 0 0 1 .5 1.1 1.8 1.8 0 0 1-.1.7l-.2.4-.3.3-.3.2h-1.4l-.5-.2h1.8l.2-.2v-.6a1.2 1.2 0 0 0 0-.5 2.1 2.1 0 0 0-.4-.8l-.2-.3-.2-.3H47l.6-.3.3-.2.2-.2v-.4a.5.5 0 0 0 0-.2.4.4 0 0 0 0-.2v-.3l-.3-.5-.5-.4-.5-.2-1.2-.3.5-.5.5-.5.3-.4.1-.4.2-.4.2-.4v-.9a1.1 1.1 0 0 0-.1-.4 1.1 1.1 0 0 0-.1-.3l-.2-.2-.3-.2-.4-.2h-2l-.9.2-.8.2.3-.9.2-.9.2-.7c0-.2 0-.4.1-.6v-.4a.5.5 0 0 0-.1-.2v-.2h-1.7l-.6.2-.7.3-.7.3V16.4l-.2-.5v-.1h-2.1l-.5.2-.4.2-.4.2-.3-.8-.4-.9-.2-.4v-.6l-.3-.4-.7-.3-.4-.3-.5-.2h-1.1l-1 .4a3 3 0 0 0-1.3 1.5z"/><path class="95bd6faf-f7cd-41e0-989c-28975b22d9d6" d="M44.8 33a2.9 2.9 0 0 1 1.6-1.1 2 2 0 0 1 1.1.1l.6.3.5.5.3.6a4 4 0 0 1 .1.7 2.5 2.5 0 0 1 0 .6l-.2.6-.3.5-.3.4-.7.6V36l.7.3.6.5a2 2 0 0 1 .4.8 1.9 1.9 0 0 1 0 1 1.4 1.4 0 0 1-.2.5l-.3.4-.7.5-.8.2h-.8l.2-.6.2-.6.6.6.4.7a2.5 2.5 0 0 1 .2.9 1.8 1.8 0 0 1 0 .6 1.5 1.5 0 0 1-.2.6l-.4.5-.5.3H45l-.8-.3.4-.5.4-.5.3.5.2.5a4.2 4.2 0 0 1 .2 1.1 2.8 2.8 0 0 1 0 .6 2.1 2.1 0 0 1-.1.6 1.9 1.9 0 0 1-.3.6l-.5.5-.7.3h-1.8l-.5-.2-.5-.3-.4-.1-.4-.3.5-.2.4-.3a4.4 4.4 0 0 1 0 .8 3 3 0 0 1-.1.8 2.1 2.1 0 0 1-.4.8l-.4.3-.5.2a1.4 1.4 0 0 1-1-.1 2.1 2.1 0 0 1-.7-.5l-.3-.7v-.6h.5a2.6 2.6 0 0 1-.5 1l-.4.3h-1.2l-.2-.2-.2-.6v-.5l.2.4.3.3h.6l.3-.3a2.4 2.4 0 0 0 .3-.8v-.7l.3.4.2.3.2.3.2.2.4.4h1l.2-.4a2.8 2.8 0 0 0 .1-.5 3.4 3.4 0 0 0 0-.6v-1.3l.5.4.5.4.4.2.4.2.4.2h1.6v-.5a1 1 0 0 0 .1-.3 1.3 1.3 0 0 0 0-.4 3.6 3.6 0 0 0-.1-.8V43l-.2-.4-.4-.7-.4-.7.8.3.8.2h1.8a.4.4 0 0 0 0-.2 1.4 1.4 0 0 0-.1-.5l-.4-.6-.3-.5-.4-.5-.5-.4h2.3l.4-.2h.2a.4.4 0 0 0 0-.1.5.5 0 0 0 0-.2.9.9 0 0 0-.2-.4l-.3-.4-.4-.3-.4-.2-.4-.7.6-.4.7-.5.3-.3.2-.4v-.4a1 1 0 0 0 .1-.4v-.9l-.2-.4-.4-.3-.9-.2a2.6 2.6 0 0 0-1.6.7z"/><path class="95bd6faf-f7cd-41e0-989c-28975b22d9d6" d="M36 47.1a3.1 3.1 0 0 1 1.5 1.2 2.1 2.1 0 0 1 .3 1 2.4 2.4 0 0 1-.1.5 1.7 1.7 0 0 1-.3.5l-.4.4-.5.3-.5.2h-1.4l-.9-.3.3-.2.3-.3a3.4 3.4 0 0 1 .1.7 2.4 2.4 0 0 1 0 .7 1.8 1.8 0 0 1-.3.8 1.5 1.5 0 0 1-.7.6h-1l-.7-.2-.6-.5-.2-.3-.2-.2h.5l.5-.2a4.7 4.7 0 0 1-.1.8 3.5 3.5 0 0 1-.3.8 2.6 2.6 0 0 1-.6.7l-.4.3h-1.2l-.5-.3-.4-.3-.2-.5-.2-.4v-1.1h1.1l-.2.5-.3.4-.7.8-.5.3-.6.2h-1.7l-.6-.5a2.1 2.1 0 0 1-.4-.6v-.6a4 4 0 0 1-.1-.6v-.6a2.5 2.5 0 0 1 .1-.5l.5-.9.3.3.3.3-.7.2h-.8a1.7 1.7 0 0 1-.8-.3l-.4-.3a1.1 1.1 0 0 1-.3-.5 1.3 1.3 0 0 1 .1-1 1.7 1.7 0 0 1 .5-.7l.6-.4h.7v.5a2.1 2.1 0 0 1-.9-.5l-.3-.4a.6.6 0 0 1-.1-.3.7.7 0 0 1 0-.3v-.1l.4-.2.5-.2h.1l-.3.2h-.2a.4.4 0 0 0 0 .1h.1l.2.9.8.3h.7l-.7.3h-.5l-.4.4v.4a.2.2 0 0 0 0 .2h1.8l1.1-.5-.3.5-.3.5-.2.8a2 2 0 0 0 0 .4V52h.1l.2.2h1l.3-.2.6-.5.2-.3.2-.3.4-.7.3-.8v.8l.2.8.2.6.2.5v.2h.5l.3-.3.2-.5.2-.6v-1l.3.5.4.5.3.4.4.3.4.2h.7l.2-.4a1.8 1.8 0 0 0 .1-.5 2.6 2.6 0 0 0 0-.5v-.8l.3.2.3.2.8.3h1.9l.3-.2.2-.3v-.6a1.5 1.5 0 0 0-.1-.8 2.7 2.7 0 0 0-1-1.3z"/><path class="95bd6faf-f7cd-41e0-989c-28975b22d9d6" d="M24.2 45.3a3.2 3.2 0 0 1 .9 1.6 1.8 1.8 0 0 1-.1 1l-.3.5-.4.4-.5.3h-2.1l-.8-.4.6-.4a4 4 0 0 1 0 .8 3.2 3.2 0 0 1-.1.7 1.9 1.9 0 0 1-.4.7 1.7 1.7 0 0 1-.7.5h-.9l-.7-.3-.6-.7-.2-.3-.2-.3h1a5.3 5.3 0 0 1-.2.8l-.4.7a2.5 2.5 0 0 1-.6.7l-.5.3h-1l-.4-.3-.3-.4-.3-.6V49h1.1l-.3.5-.3.4-.8.7-.5.3h-1.8l-.8-.4a2.3 2.3 0 0 1-.6-.6 2.3 2.3 0 0 1-.3-.7v-.3a2.9 2.9 0 0 1 .1-.6v-.6l.2-.5.3-.4.3-.4.4.5.3.4h-1.5l-.8-.4-.3-.3a1 1 0 0 1-.2-.4 1.2 1.2 0 0 1 .1-.9 2 2 0 0 1 .5-.6l.6-.4.6-.3v.5l-1-.3-.3-.4v-.3a.6.6 0 0 1 0-.2.8.8 0 0 1 .1-.2v-.3l.4-.3.4-.2.4-.2-.4.3-.3.3-.2.3v.2a.5.5 0 0 0 0 .1h.2l.3.2.8.2h.7l-.6.4-.5.4-.4.4v.4a.3.3 0 0 0 0 .2.2.2 0 0 0 0 .1h.2l.4.2h1.7l.6-.2-.4.4-.4.5-.4.7v1.3h.1v.3l.2.2H14l.6-.5.3-.3.2-.3.8-1.5a4.6 4.6 0 0 0 .1.8l.2.8v.6l.2.5v.2h.5l.3-.3.3-.5.2-.5.2-.6v-.1l.3.6.3.5.3.4.4.3.3.2h.5l.2-.3v-.5a2.8 2.8 0 0 0 .1-.5v-.9l.3.2.3.2.9.5.4.2h1.9l.3-.2.2-.3a1.4 1.4 0 0 0 .2-.7 3 3 0 0 0-.6-1.7z"/><path class="95bd6faf-f7cd-41e0-989c-28975b22d9d6" d="M10.8 42a3 3 0 0 1-1.3 1.5 2.4 2.4 0 0 1-1.2.3h-.6l-.6-.3-.5-.5-.4-.5a2.4 2.4 0 0 1-.4-.5l-.2-.5v-.6a3.1 3.1 0 0 1-.1-.5 9.7 9.7 0 0 1 .1-1l.6.6-.8.2h-.8l-.9-.3a2.2 2.2 0 0 1-.7-.8 1.6 1.6 0 0 1-.2-.5 1.9 1.9 0 0 1-.2-.6 3 3 0 0 1 .1-1l.3-.7.2-.3.2-.3.3.6.3.6h-.8l-.9-.2a2.7 2.7 0 0 1-.9-.7l-.4-.4a1.8 1.8 0 0 1-.3-.6 1.7 1.7 0 0 1-.1-.7 1.9 1.9 0 0 1 .1-.6l.4-.7.3-.4.2-.2.2-.2.3-.2.4-.2.4-.2v1.5l-.5-.2-.5-.2L1 32l-.4-.5-.3-.6A2.3 2.3 0 0 1 0 30a2.4 2.4 0 0 1 .1-.9 2.5 2.5 0 0 1 .3-.9 2.5 2.5 0 0 1 .6-.6l.3-.3.3-.2.6-.3h2.1l-.3.5-.3.5-.4-.7a2.5 2.5 0 0 1-.2-.8 2.1 2.1 0 0 1 .1-1l.2-.5.6-.4a1.8 1.8 0 0 1 1.1-.4 2.1 2.1 0 0 1 .9.2l.7.4.3.3.2.3h-.6a2.2 2.2 0 0 1 .2-1.1l.4-.5.3-.2h1l.4.6.3.4.2.4-.3-.4-.4-.3-.4-.1h-.7l-.2.4a2.3 2.3 0 0 0-.1.9v.7l-.3-.1-.3-.2-.3-.2-.3-.2-.6-.2h-.8v.4a1.2 1.2 0 0 0 0 .5 2.5 2.5 0 0 0 .1.6l.2.5.7 1h-3l-.3.2H2l-.2.3a.8.8 0 0 0-.1.3.7.7 0 0 0 0 .3.8.8 0 0 0 .1.3l.2.3.2.3.6.5.4.2.4.2.8.3.8.2-.8.4-.8 1.1-.3.2-.3.2-.4.4v.4a.2.2 0 0 0 0 .1l.4.7.6.2h2l-.5.8-.4.5-.3.5-.2.5a1.7 1.7 0 0 0-.1.5.4.4 0 0 0 0 .2v.2h.4l.4.2h1.9v1.7a2.1 2.1 0 0 0 0 .4v.9l.2.5.2.4.3.3.4.2h1.5a2.9 2.9 0 0 0 1.4-1z"/><path class="95bd6faf-f7cd-41e0-989c-28975b22d9d6" d="M8.7 23.9a3 3 0 0 1-1.9.4 2.2 2.2 0 0 1-1-.5l-.4-.5-.4-.4v-.7-.6a2.5 2.5 0 0 1 0-.5l.2-.5.3-.5.3-.4.6-.7.2.9-.7-.3-.6-.5-.5-.7a2 2 0 0 1-.2-1 1.7 1.7 0 0 1 0-.4l.2-.4a2.6 2.6 0 0 1 .6-.7l.7-.4h.7v.6c0 .3-.1.6-.1.6l-.7-.8-.6-.6a2.8 2.8 0 0 1-.5-.8 1.7 1.7 0 0 1-.1-.5 1.6 1.6 0 0 1 .1-.6 1.4 1.4 0 0 1 .3-.6l.4-.4.4-.3.4-.2H8l-.2.7-.2.4-.4-.4-.4-.4-.6-.9-.2-.6a2.4 2.4 0 0 1-.1-.7 1.9 1.9 0 0 1 0-.7 2.1 2.1 0 0 1 .2-.7 2.1 2.1 0 0 1 .4-.6l.5-.4.3-.2h.3l.6-.2h2.1l-.5 1-.4-.5-.3-.7a2.4 2.4 0 0 1-.1-.9 1.4 1.4 0 0 1 .1-.5l.2-.4a1.4 1.4 0 0 1 .8-.5h1.6l.7.2-.2.2-.2.2a3 3 0 0 1-.3-1 1.4 1.4 0 0 1 0-.6v-.2l.2-.2h1l.5.2.4.2h-1.7a.5.5 0 0 0 0 .2 1.1 1.1 0 0 0 .1.4 2.8 2.8 0 0 0 .4.8l.4.6h-2.8V6a.5.5 0 0 0 0 .2 1.5 1.5 0 0 0 .1.5l.2.5.3.5.8 1H7.9l-.2.2v.5a.5.5 0 0 0-.1.2.8.8 0 0 0 0 .3v.7l.4.7.3.3.3.3.6.6.8.5H6.5a.1.1 0 0 0 0 .1v.2l.2.4.4.4.4.4.5.4.6.4-.6 1-.6.2-.5.2-.5.3-.3.3v.2H6a.4.4 0 0 0 0 .2v.2l.2.4.4.4.5.3.4.2.4.2-.3.2-.3.2-.6.6-.3.3-.3.3-.2.4a1.3 1.3 0 0 0-.1.4V23l.2.4.7.5a2.8 2.8 0 0 0 2 0zM14.4 3.8a2.1 2.1 0 0 1-.7-.9 1.6 1.6 0 0 1 .1-1.1 2.7 2.7 0 0 1 .7-1l.5-.3.6-.2h1.7l.5.2.5.3.4.3.8.7h-1l.3-.7.5-.6.8-.5a2.1 2.1 0 0 1 1.2 0l.7.3.4.3a2.4 2.4 0 0 1 .6.8l.3.8v.7h-.1l-.4-.2-.4-.2h-.3l.7-.5.8-.4h1.6l.6.3.5.5a1.6 1.6 0 0 1 .3.6 1.8 1.8 0 0 1 .1.5v1a2.9 2.9 0 0 1-.1.4l-.3.8-.4-.7-.6-.5.5-.2.5-.2h1.8l.6.2.7.4.6.6a2.1 2.1 0 0 1 .3.7 2.4 2.4 0 0 1 .1.7v.7l-.2.6-.2.6-.3.4-.3.4-.4.5-.2-.5-.3-.5h.8l.8.2.8.5.3.4.2.5a1.6 1.6 0 0 1-.1 1.1 2.2 2.2 0 0 1-.5.7l-.6.5-.3.2-.3.2v-.7l1 .5a1.2 1.2 0 0 1 .4.5v.3a1.1 1.1 0 0 1 0 .3v.3l-.2.2-.4.3-.5.2h-.6l.4-.2.4-.3.3-.3a.8.8 0 0 0 0-.2.5.5 0 0 0 0-.2v-.1l-.3-.3-.8-.3h-.7l.3-.2.3-.2.3-.2.2-.2.4-.5v-.7a.3.3 0 0 0 0-.2.3.3 0 0 0 0-.2v-.1l-.4-.2h-2.5l.4-.5.4-.9.2-.4.2-.4.2-.4V6.8a.7.7 0 0 0-.1-.3V6l-.3-.2h-2.3l-.8.3-.8.4.3-.8.3-.7.1-.6c0-.2.1-.4.1-.6v-.4h-1l-.6.2H23l-.5.4-.5.4v-.6V2.5l-.4-.5-.2-.4h-.7l-.4.2-.4.4-.3.5-.2.4-.2.4L19 3l-.3-.3-.6-.6-.3-.3-.4-.3-.4-.2-.4-.2h-1.3l-.4.2-.7.7a2 2 0 0 0-.3.9 1.2 1.2 0 0 0 .5.9zM20.2 34.6a3.2 3.2 0 0 1-.6 1.8 1.9 1.9 0 0 1-.8.6h-1l-.5-.2-.3-.3-.3-.4-.2-.4v-.5a2.7 2.7 0 0 1-.1-.4 5.6 5.6 0 0 1 0-.9l.3.2h.3l-.6.4-.7.3h-.9a1.3 1.3 0 0 1-.7-.4l-.2-.3a1.1 1.1 0 0 1-.1-.4 1.9 1.9 0 0 1 0-.8l.2-.7.2-.3.2-.3.3.4.3.3-.8.2h-.9l-.9-.2-.4.1-.3-.4a1.1 1.1 0 0 1-.1-.5 1.2 1.2 0 0 1 .1-.5l.2-.4.2-.4.3-.3.3-.3.3-.2.3-.2v.5l.2.5h-.9l-1-.3-.5-.3-.4-.6a1.5 1.5 0 0 1-.3-.6 1.6 1.6 0 0 1-.1-.7 1.8 1.8 0 0 1 .2-.7 1.8 1.8 0 0 1 .4-.6l.2-.2.3-.2.5-.3h2l-.2.3v.4L13 26l-.4-.6a1.6 1.6 0 0 1-.1-.8 1.2 1.2 0 0 1 .1-.5l.3-.4a1.2 1.2 0 0 1 .9-.3 1.8 1.8 0 0 1 .8.2l.6.4.2.3.2.3h-.3a2.2 2.2 0 0 1 0-1 1.2 1.2 0 0 1 .2-.5l.2-.2h.7l.3.3.3.7.2.4-.3-.3-.3-.3-.3-.2h-.5v.5a2.7 2.7 0 0 0 .1.8v.7l-.3-.3-.2-.2-.2-.2-.2-.1-.5-.3h-.8v.2a1 1 0 0 0 .1.4l.2.7.3.4.9.8h-2.6l-.3.2h-.2v.2a.5.5 0 0 0 0 .2.4.4 0 0 0 0 .2v.2l.2.2.3.2.7.3h2.4l-.7.4-.7.5-.5.4-.4.4v.7a.2.2 0 0 0 0 .1.1.1 0 0 0 0 .1h1.7l.6-.2.6-.2-.4.5-.3.5v.5l-.2.4a1.2 1.2 0 0 0 0 .4h1.1l.4-.2.3-.2.3-.2V34a2.1 2.1 0 0 0 0 .4v.7l.2.3.2.3.3.2h.7l.7-.3a2.6 2.6 0 0 0 .6-1z"/><path class="95bd6faf-f7cd-41e0-989c-28975b22d9d6" d="M16 17.5a2.7 2.7 0 0 1-1.8.5 1.7 1.7 0 0 1-.9-.4 1.6 1.6 0 0 1-.3-.5 2.8 2.8 0 0 1-.2-.6v-1l.2-.4.3-.4h.4l.4-.2.8-.3v.3a2.6 2.6 0 0 0 0 .3l-.6-.4-.5-.6a1.7 1.7 0 0 1-.3-.7 1.4 1.4 0 0 1 .1-.8l.3-.3.3-.2.8-.2h1.4l-.5.8-.4-.7a3.4 3.4 0 0 1-.3-.8 2.2 2.2 0 0 1 0-.9 1.2 1.2 0 0 1 .2-.5l.4-.4.5-.3h1.8l.3.3.2.3.4.7h-.5l-.5.2a4.1 4.1 0 0 1 0-.5 4.2 4.2 0 0 1 0-.5 2.8 2.8 0 0 1 .3-1l.3-.5.5-.4.7-.3h.8a2 2 0 0 1 .8.3 1.6 1.6 0 0 1 .5.5l.2.3v.3l.2.6v.5a3 3 0 0 1-.1.5v.5l-.2.5-.3-.2-.3-.2.6-.4.7-.2H24l.3.3a1.1 1.1 0 0 1 .2.8 2.2 2.2 0 0 1-.2.7l-.4.6-.5.5v-.4h1.7v.4a.7.7 0 0 1 0 .2v.2l-.2.4-.3.3-.4.3.3-.3.2-.4v-.2a.5.5 0 0 0 0-.2h-.6l-.8.2-.7.2.2-.3.2-.3.3-.5.2-.5v-.5a.4.4 0 0 0 0-.2.2.2 0 0 0 0-.2h-.7l-.5.2-.5.3-.5.4-.4.4.2-.6v-.7a7 7 0 0 0 .1-.8 1.9 1.9 0 0 0 0-.4v-.9h-.3l-.2-.2H20l-.2.2-.2.3a2.2 2.2 0 0 0-.3.7v.8a8.2 8.2 0 0 0 0 .8 7.8 7.8 0 0 0 .1.8l-.4-.7-.5-.6-.2-.2-.3-.3-.4-.3h-.8a1.2 1.2 0 0 0 0 .4v.5l.2.5.3.6.5.6-1.1-.4h-1.6a.3.3 0 0 0 0 .1.8.8 0 0 0 .1.4l.3.4.2.5.3.3.3.2h-.6l-.8.2-.3.2-.3.2-.3.3-.2.3-.2.3v.4a1.7 1.7 0 0 0 .1.4l.2.3a1.4 1.4 0 0 0 .6.5 2.2 2.2 0 0 0 1.5-.1zM34.3 23.8a3.6 3.6 0 0 1 1.7-.9h1l.5.2.5.4.3.5.2.5a2.4 2.4 0 0 1 .1.5 4.2 4.2 0 0 1 .1.5v.5a3.2 3.2 0 0 1-.1.5l-.3.9-.6-.7h1.5l.8.3a2 2 0 0 1 .6.7 1.2 1.2 0 0 1 .2.5 1.5 1.5 0 0 1 0 .5 2.7 2.7 0 0 1-.2.8l-.4.7-.3.3-.3.3-.2-.6-.2-.5h.8l.8.3.8.6.4.5a1.5 1.5 0 0 1 .2.6 1.7 1.7 0 0 1 0 .7 1.2 1.2 0 0 1-.2.6l-.3.4-.4.3-.4.2-.4.2-.8.2a9.8 9.8 0 0 0 .1-1.3l.5.2.5.3.8.8.3.5.2.6a2.1 2.1 0 0 1 .1.7 2.6 2.6 0 0 1-.2.8 2.5 2.5 0 0 1-.4.7l-.6.4-.3.2h-.3l-.6.2h-2.1l.3-.4.3-.4.3.7a3.3 3.3 0 0 1 .2.7 2.5 2.5 0 0 1 0 .9 1 1 0 0 1-.2.4l-.3.4a1.5 1.5 0 0 1-.9.4h-.8l-.6-.6-.6-.4.5-.3a2.9 2.9 0 0 1 .1 1.1 1.5 1.5 0 0 1-.2.5l-.2.2h-.9l-.5-.2-.4-.3-.3-.3.4.3.4.2h1a.9.9 0 0 0 .1-.4 2.8 2.8 0 0 0-.1-.9l-.3-.9.3.2.4.2.6.3.6.2h.9v-.6a1.3 1.3 0 0 0 0-.5l-.2-.5-.3-.5-.3-.5-.4-.5 1.2.2h2.3l.2-.2v-.5a.6.6 0 0 0 0-.2.8.8 0 0 0 0-.3v-.4l-.2-.3-.5-.6-.3-.3-.3-.1-.7-.4-.8-.3.8-.2.8-.3.6-.2.5-.3.2-.2h.2a.1.1 0 0 0 0-.1h-.2l-.4-.8-.5-.2-.6-.2h-1.3l.5-.4.5-.4.4-.4.3-.4a1.2 1.2 0 0 0 .1-.4.3.3 0 0 0 0-.2.3.3 0 0 0 0-.1h-.2l-.4-.2h-1.9l.2-.3.2-.4.3-.8v-1.4a3.5 3.5 0 0 0 0-.4 1.8 1.8 0 0 0 0-.4v-.5l-.2-.3-.3-.3-.3-.2-.8-.2a3.5 3.5 0 0 0-1.7.5z"/></svg>