<svg id="c3c9b336-e253-40a7-8997-00e6a068846d" data-name="Layer 1" xmlns="http://www.w3.org/2000/svg" width="39.2" height="47" viewBox="0 0 39.2 47"><defs><style>.\38 4f46453-12b1-4006-a461-1439bb0cdb73{fill:url(#002cff0b-b58f-4283-a3b5-1099ce8dca88)}.f5d2aa8c-7d68-4639-a8f6-4ba9ab673e77{fill:#28421d}</style><linearGradient id="002cff0b-b58f-4283-a3b5-1099ce8dca88" x1="21.06" y1="40.8" x2="18.06" y2="4.72" gradientUnits="userSpaceOnUse"><stop offset="0" stop-color="#006838"/><stop offset="1" stop-color="#009444"/></linearGradient></defs><title>tree2</title><path class="84f46453-12b1-4006-a461-1439bb0cdb73" d="M31.5 22.8s13.6-9 3.1-17.5-19.8.3-19.8 3.4c0 0-11.4 1.3-9.7 10.1 0 0-14.5 21.6 7.5 25.9S32 29.4 31.5 22.8z"/><path class="f5d2aa8c-7d68-4639-a8f6-4ba9ab673e77" d="M6.4 18.4l-.8.3h-.9l-.5-.2-.4-.3a1.3 1.3 0 0 1-.2-.5v-.3a1 1 0 0 1 0-.3v-.4l.4-.4.3-.3.3-.2h1.6v.5l-.4-.5-.3-.5a1.7 1.7 0 0 1-.2-.6 1 1 0 0 1 .1-.6l.2-.2.3-.2h1.6l-.2.3-.2.3-.4-.6-.3-.7a2.1 2.1 0 0 1-.2-.7 1.1 1.1 0 0 1 0-.4l.2-.4.4-.3h1.6l.3.2.6.6-.3.3-.3.3-.2-.4v-.6a3.8 3.8 0 0 1-.1-.9 2.2 2.2 0 0 1 0-.5 1.7 1.7 0 0 1 .1-.5l.2-.4.4-.3h1.4l.4.2.1.4.3.3.3.3.3.3-.6.3a4.2 4.2 0 0 1 0-.6 3.2 3.2 0 0 1 .1-.6 1.8 1.8 0 0 1 .3-.6l.2-.2h1l.5.4.3.5.2.6h-.4a2.7 2.7 0 0 1 .3-.8l.2-.3h.7l.2.3v.5l-.2-.3-.2-.2h-.3v.4a2.9 2.9 0 0 0-.2.7v.7l-.3-.3-.2-.3-.3-.5-.2-.3h-.7v.4a3.1 3.1 0 0 0-.1.5 4.2 4.2 0 0 0 0 .5v1.1l-.4-.4-.4-.4-.3-.3-.1-.4-.3-.2-.3-.2h-1v.4a1.1 1.1 0 0 0 0 .3 3.5 3.5 0 0 0 .1.7v.7l.3.7.3.7-.6-.4L9 13l-.5-.3-.4-.2h-.5a.2.2 0 0 0 0 .1 1.1 1.1 0 0 0 .1.4l.2.4.3.4.3.5.3.5-.5-.2h-2a.3.3 0 0 0 0 .1.8.8 0 0 0 .1.3l.2.4.3.4.1.3.2.3H4.9l-.3.2-.2.4v.3a.8.8 0 0 0 0 .3 1.4 1.4 0 0 0 .1.4 1.1 1.1 0 0 0 .5.5 2.1 2.1 0 0 0 1.4-.1zM15.8 9.8a2.9 2.9 0 0 1-1.2-1.1 1.6 1.6 0 0 1-.2-.9 2.1 2.1 0 0 1 .1-.5l.2-.4.3-.4.4-.3.4-.2h2.1l-.4.6-.2-.6a2.3 2.3 0 0 1-.3-.8 2 2 0 0 1 .1-.7 1.3 1.3 0 0 1 .4-.7l.3-.2H19l.6.2.6.2-.4.3-.4.3a4.2 4.2 0 0 1-.1-.7 3.5 3.5 0 0 1 0-.7 2.5 2.5 0 0 1 .2-.8l.3-.4.4-.3.5-.2h.9l.4.2.3.2.3.2.2.3.2.5-1 .4a4.8 4.8 0 0 1 0-.5v-.5a4.2 4.2 0 0 1 .3-.9l.2-.4.3-.4.5-.4.6-.2h.6l.5.2h.2l.2.2.4.4.3.4.2.4.2.4v.6h-.7l.4-.6.4-.5.6-.4h.8a1.3 1.3 0 0 1 .7.5 1.5 1.5 0 0 1 .3.6 5.1 5.1 0 0 1 .1.7v.5l-.4-.2.7-.6h.9l.2.2v.3a1.4 1.4 0 0 1 0 .4v.4a3.1 3.1 0 0 0 0-.4 1.4 1.4 0 0 0-.1-.3h-1l-.6.5-.4.5V2.1h-.9l-.3.3-.3.4-.2.4-.2.5-.2.5-.2-.5-.2-.5-.2-.3-.2-.3-.2-.3-.2-.3-.2-.2h-1.1l-.2.2v.2l-.2.7V5l-.5-.6-.5-.6-.4-.4-.4-.3h-.9v.5a2.8 2.8 0 0 0 0 .5 4.1 4.1 0 0 0 0 .5v1.2l-.5-.3-.5-.3-.3-.2h-1.2a1 1 0 0 0-.1.4 1.9 1.9 0 0 0 0 .4V7h-2.7l-.3.2-.1.3v.4a1.3 1.3 0 0 0 0 .7 2.7 2.7 0 0 0 .8 1.2zM30.3 4.6a3.4 3.4 0 0 1 1.4-1.1l1-.2h.5l.5.2.5.3.4.4.3.5.1.7v.5a3.1 3.1 0 0 1 .1.5 6.5 6.5 0 0 1 0 .9l-.3-.3-.3-.3.7-.2h.8l.8.3a1.7 1.7 0 0 1 .7.7l.2.5a1.7 1.7 0 0 1 .1.5 3 3 0 0 1-.1.9l-.3.7-.2.3-.2.3-.6-1.2h.8l.8.3.7.6a1.5 1.5 0 0 1 .3.5 2.2 2.2 0 0 1 .2.7 1.7 1.7 0 0 1-.1.7 1.6 1.6 0 0 1-.2.6l-.3.4-.3.3h-.5l-.4.2h-.7v-.9l.4.3.4.3.6.8.2.5a2 2 0 0 1 .1.6 2.6 2.6 0 0 1 0 .7 2.4 2.4 0 0 1-.2.7 2 2 0 0 1-.4.6l-.5.4-.3.2h.2l-.5.2h-2l.3-.2.3-.5.3.6a3.4 3.4 0 0 1 .2.7 2.4 2.4 0 0 1 0 .8v.4l-.3.4a1.7 1.7 0 0 1-.8.5h-1l-.7-.2h-.2l-.3-.2.4-.4a2.3 2.3 0 0 1 .1 1 1.4 1.4 0 0 1-.2.5l-.2.2-.3.2h-1l-.3-.2v-.4l.4.2h1a1.1 1.1 0 0 0 .1-.4 2.1 2.1 0 0 0-.2-.8v-.6h2.5v-.2a1.5 1.5 0 0 0 0-.5l-.2-.5-.2-.5-.3-.5-.3-.4h2.7l.3-.2h.3l.2-.2v-.5a.7.7 0 0 0 .1-.2.8.8 0 0 0 0-.3v-.6l-.4-.6-.3-.3-.3-.2-.6-.4-.6-.4.7-.2.7-.2h.5l.4-.3.2-.2V12h.1a.1.1 0 0 0 0-.1h-.2l-.3-.3-.5-.6-.5-.2h-1.2l.4-.4.4-.5.3-.4.2-.4a1.4 1.4 0 0 0 .1-.4.4.4 0 0 0 0-.2h-.4l-.4-.2H34V7.2a6.4 6.4 0 0 0 .1-.8 2.2 2.2 0 0 0 0-.4v-.8l-.2-.4-.2-.3-.3-.3L33 4h-1.2a3.7 3.7 0 0 0-1.5.6zM3.2 37.2a2.9 2.9 0 0 1-1.7 0 1.7 1.7 0 0 1-.8-.5l-.3-.4a2 2 0 0 1-.2-.4v-1.3l.2-.4.6-.4.3-.3.6-.6v.7l-.6-.2-.5-.4-.5-.5a1.3 1.3 0 0 1-.2-.7 1.2 1.2 0 0 1 .1-.4l.1-.4.5-.5.6-.4.6-.3v1l-.7-.3-.6-.5-.5-.6A1.2 1.2 0 0 1 0 29a1.4 1.4 0 0 1 .1-1l.3-.4.3-.3.4-.2h1.5l-.3.9-.4-.3-.4-.3-.6-.7-.3-.4-.2-.5a1.7 1.7 0 0 1-.1-.6 1.3 1.3 0 0 1 .1-.6 1.7 1.7 0 0 1 .3-.5l.4-.4h.6l.5-.2H4l-.4.8-.4-.5-.3-.8a1.8 1.8 0 0 1-.1-.7 1.1 1.1 0 0 1 0-.4l.2-.3a1.1 1.1 0 0 1 .6-.5h2l-.3.4a2.3 2.3 0 0 1-.3-.6 1.1 1.1 0 0 1 0-.5v-.2l.2-.2h.9l.4.2.3.2-.4-.2h-1a1 1 0 0 0 0 .3l.3.7.4.5H3.8a.4.4 0 0 0 0 .2v.4l.2.4.3.4.6.9.4.4H2.2L2 25v.2a.4.4 0 0 0 0 .2.6.6 0 0 0 0 .2v.3l.2.3.5.5.3.2.3.2.6.4.6.4h-2l-.5.2h-.5a.1.1 0 0 0 0 .1l.2.3.4.3.4.3.5.3.5.3-.5.2-.5.2-.4.2-.4.2-.2.3h-.1a.3.3 0 0 0 0 .1l.2.3.4 1.4.4.2.7.3-.5.4-.6.5-.3.3h-.2l-.2.3-.2.3v.6a1.6 1.6 0 0 0 .1.3v.3l.5.5a2.8 2.8 0 0 0 1.5.6zM29.8 23.1a3.1 3.1 0 0 1 1.6-.3l.8.3.3.3.2.4a1.8 1.8 0 0 1 0 .4v.8l-.2.3-.2.3-.3.3-.6.5-.4-.6.6.2.6.3.5.4a1 1 0 0 1 .2.6.8.8 0 0 1-.1.3v.3l-.4.4-.5.3-.6.2v-.4-.4l.7.3.6.4.5.5.2.3a.7.7 0 0 1 0 .4.7.7 0 0 1-.1.4l-.3.3-.3.2-.3.2h-1.6v-.7l.4.2.4.2.7.6.3.3.2.4a1.2 1.2 0 0 1 .1.4.9.9 0 0 1 0 .4 1 1 0 0 1-.2.4l-.3.3H32l-.4.2h-1.7v-.2l.5.4.6.5.3.5v.3a.5.5 0 0 1 0 .3.7.7 0 0 1-.4.4l-.6.2h-1.1v-.3l.8.6.2.3v.2a.4.4 0 0 1 0 .2h-.7l.3-.2h.1a.2.2 0 0 0 0-.1h-.1l-.2-.2-.6-.4-.6-.3h2l-.2-.3-.4-.3-.4-.3-.9-.5 1.1-.2h2.1a.3.3 0 0 0 0-.2v-2l-.2-.2-.5-.4-.3-.2-.3-.2-.7-.3-.7-.3h2.8a.1.1 0 0 0 0-.1h-.3l-.3-.3-.3-1.1-.4-.2-.5-.2-.5-.2.5-.2.5-.2.4-.2.4-.2.2-.2h.1a.2.2 0 0 0 0-.1l-.2-.2-.4-.5-.4-.2h-.7l.3-.2.3-.2.6-.4.3-.2.2-.2.2-.3.2-.3v-.4-.3a1.1 1.1 0 0 0-.1-.3v-.1l-.5-.3a2.7 2.7 0 0 0-1.6-.1z"/><path class="f5d2aa8c-7d68-4639-a8f6-4ba9ab673e77" d="M28.7 38a2.5 2.5 0 0 1 1.3 1.5 3 3 0 0 1 0 1.4 5.6 5.6 0 0 1-.3.8l-.5.7-.6.6-.7.4-.7.2-.7.2h-1.2l-1.1-.2.5-.3.4-.2h.2a2.9 2.9 0 0 1-.2.8l-.4.8-.7.8a3.1 3.1 0 0 1-1.2.6h-1.3l-1.1-.2-.8-.4-.6-.7h.9l.8-.2-.4.7-.6.7-.9.6-.7.2h-1.7l-.7-.3-.5-.3-.4-.4-.3-.4-.3-.4-.4-.7 1.9.2-.4.4-.4.4-1 .7-.6.3-.8.2h-.8l-1-.2-.9-.3-.7-.5-.3-.3-.2-.2-.4-.6-.2-.5a2.8 2.8 0 0 1-.2-.5v-1.1l.7.4.5.2-.7.3-.8.2h-1l-.6-.2-.6-.4a2.9 2.9 0 0 1-.8-1 2.2 2.2 0 0 1-.4-.8 6.8 6.8 0 0 1 0-.8l.2-.7.6.6H3.8l-.7-.2-.3-.2-.3-.3-.1-.4v-.3a2.1 2.1 0 0 1 0-.6v-.5l.2-.4v1a2.7 2.7 0 0 0 .1.5v.4h1.8l.7-.1v1.5s.1.4.1.6v.5l.2.2h1.9l.5-.2.5-.3.5-.3v.6l.2.6v.4l.2.4.2.4.2.4.3.3v.2h.2l.3.2h1.4l.4-.2.7-.4.3-.3.3-.3.5-.6.5-.6.4.8.4.8.3.5.4.5.2.2h.9l.5-.3.4-.4.4-.5.3-.6.3-.6.9.9.5.4.2.2.3.2.5.3h1.4l.4-.4.3-.5.2-.5v-.8h.8l.9.2H27l.5-.2.5-.2.4-.4.4-.4.3-.5.2-.6a4.1 4.1 0 0 0 0-.6 2.3 2.3 0 0 0-.3-1z"/><path class="f5d2aa8c-7d68-4639-a8f6-4ba9ab673e77" d="M21.6 36.4a2.9 2.9 0 0 1 .7 1.5 1.7 1.7 0 0 1-.1.9l-.3.4-.4.3-.4.2h-1.3l-.4-.2-.4-.2-.7-.5.6-.3a3.1 3.1 0 0 1-.1.7l-.2.6-.4.6-.7.3h-.6l-.6-.4-.4-.5v-.7h.9l-.3.7-.4.6-.6.5-.4.2h-.7l-.5-.2-.4-.3-.2-.4-.2-.4v-1.3l.5.2h.5l-.3.4-.3.3-.7.6-.5.2H11l-.6-.2-.4-.3a1.5 1.5 0 0 1-.3-.5v-.5a3.4 3.4 0 0 1 0-.5v-.9l.2-.4.2-.4.3.3.4.2-.6.2H8.8l-.3-.2-.3-.3a1.1 1.1 0 0 1-.1-.8 1.6 1.6 0 0 1 .3-.6l.5-.4.3-.2.3-.2v.4l-.9-.2-.4-.3v-.3a.6.6 0 0 1 0-.2v-.4l.4-.3.4-.2h.5l-.4.2-.3.2-.2.3a.4.4 0 0 0 0 .1h.1l.3.5h1.4l-.3.2-.3.2-.2.2-.2.2-.3.4v.4a.2.2 0 0 0-.1.1h1.2l.5-.2.5-.2.5-.2-.5 1v.7a2 2 0 0 0-.1.3v.8h.1v.2h1.1l.5-.4.3-.3.2-.3.4-.6.4-.6v.7c0 .3.1.7.1.7v1.2h.4l.3-.2.3-.4.2-.4.2-.5.2-.5.2.5.2.5.2.4.3.3.3.2h.5l.2-.3.2-.4v-.5l.2.2.6.3.6.5.3.2.3.2h1.6l.2-.2a1.3 1.3 0 0 0 .2-.6 2.5 2.5 0 0 0-.3-1.7zM11.4 26.5a2.6 2.6 0 0 1-1.2 1.3 1.3 1.3 0 0 1-.9 0l-.5-.4-.3-.4v-.5-.4a1.5 1.5 0 0 1 .1-.4l.2-.3v-.3l.2-.3.6-.5.2.5h-.6l-.6-.2-.5-.3a.9.9 0 0 1-.3-.5.6.6 0 0 1 0-.3v-.4l.4-.5.5-.4.5-.3v.8l-.7-.2-.6-.3-.6-.4-.2-.3a.8.8 0 0 1-.1-.4.8.8 0 0 1 .1-.4l.2-.3.3-.2.3-.2h1.7a1.5 1.5 0 0 0-.1.4l-.5-.1-.4-.3-.7-.6-.3-.4-.2-.5a1.3 1.3 0 0 1 0-.5 1.5 1.5 0 0 1 .2-.6l.3-.4.5-.2h1.8l.4.2.4.2-.2.2-.2.3-.3-.6-.2-.6a1.7 1.7 0 0 1 0-.6v-.3l.2-.3h.7l.6.2.5.3.5.4-.3.2a2.9 2.9 0 0 1-.1-.9 1 1 0 0 1 .1-.4V15h.5l.3.2.3.3.3.3-.3-.2-.3-.2h-.5a1 1 0 0 0 0 .3 3 3 0 0 0 .2.7l.2.6-.3-.2-.3-.2-.4-.2-.4-.2H11a1.3 1.3 0 0 0 .1.4l.2.4.2.4.3.4.2.7-.5-.2-.5-.2H8.9a.3.3 0 0 0 0 .2.5.5 0 0 0 0 .2v.2l.2.3.5.5.3.2.3.2.7.3.7.3H8.8l.3.2.4.2.5.9h1.1l-.5.2-.5.2-.4.2-.3.6-.2.2h-.1a.2.2 0 0 0 0 .1.2.2 0 0 0 0 .1h.1l.2.2.4.4h1.1l-.5.4-.5.4-.2.2-.2.3-.2.3V27l.3.3a.9.9 0 0 0 .7.2 2 2 0 0 0 1.1-1zM21.8 13.9a2.8 2.8 0 0 1 .1-1.7 1.7 1.7 0 0 1 .6-.7l.5-.2h1l.5.2.4.5.3.4v.8a3.2 3.2 0 0 1 0 .8l-.3-.2.5-.4.6-.2h.7a1.4 1.4 0 0 1 .7.5l.4.3a.9.9 0 0 1 .1.4 1.8 1.8 0 0 1-.1.7l-.3.6-.2.2-.2.2-.2-.4-.2-.4h1.5l.7.4.3.3a1 1 0 0 1 .2.5 1.1 1.1 0 0 1 0 .5 1.2 1.2 0 0 1-.2.5l-.2.4-.3.3-.3.2-.3.2h-.7v-.7h.5l.4.2.7.6.4.4.3.5a1.5 1.5 0 0 1 .2.6 1.7 1.7 0 0 1-.3 1.2l-.4.4-.2.2h-.3l-.5.2h-1.7l.2-.4v-.2l.5.4.3.6a1.8 1.8 0 0 1 .2.7 1 1 0 0 1 0 .4l-.2.4a1 1 0 0 1-.6.4h-.7l-.6-.2H25l.3-.3a2.4 2.4 0 0 1 .3.9 1.1 1.1 0 0 1 0 .5v.2l-.2.2h-.9l-.4-.2-.3-.3.4.2h1.1a.9.9 0 0 0 0-.3l-.3-.7-.4-.5h2.3a.4.4 0 0 0 0-.2v-1l-.3-.4-.6-.3-.4-.4-.4-.3h3l.2-.2a.5.5 0 0 0 .1-.4v-1l-.2-.2-.6-.4-.7-.2h-.3l-.7-.3-.7-.2.7-.2.7-.3.5-.2.4-.3h.3a.1.1 0 0 0 0-.1h-.2l-.3-.2h-2.2l.8-.8v-1l.2-.4a1.1 1.1 0 0 0 .1-.3.3.3 0 0 0 0-.1h-1l-.4.2-.6.4a4.2 4.2 0 0 0 .1-.6 3.9 3.9 0 0 0 0-.7v-1.1l-.2-.3-.2-.2-.3-.2h-1l-.6.4a2.4 2.4 0 0 0-.3 1.4z"/></svg>