<svg xmlns="http://www.w3.org/2000/svg" width="512" height="512" version="1"><path d="M267.456.003c-6.94.192-15.262 3.433-25.018 10.357-47.426-20.373-56.03 31.855-35.887 88.95-21.943 21.128-33.565 56.08-33.565 90.66 0 53.53-9.733 74.765-21.677 83.17-11.945 8.406-19.04 24.336-7.98 35.396 10.943 10.942 22.693 7.078 39.876-8.353-.233 8.663-.49 18.308-.49 20.282 0 13.272.882 23.892-17.256 36.28-18.138 12.387-35.83 8.4-53.083 11.496-17.253 3.1-19.035 25.665-15.94 35.397 3.098 9.733-15.482 39.822-21.676 50.882-6.194 11.06 1.774 18.57 10.18 18.57 5.18 0 7.52 4.88 3.537 15.055-3.982 10.176 1.774 18.57 31.857 22.11 29.042 3.417 65.472 3.093 112.81-12.833 38.045 12.83 127.85 18.144 153.51 10.18-29.2-29.197-104.838-63.26-173.852-66.8 0 0 21.223-24.77 28.3-26.983 7.08-2.213 51.758 15.475 92.9 38.48 41.144 23.004 68.136 51.774 73.444 53.986 5.31 2.212 15.047 2.645 31.858.433.002 0 .018.017.02.02a.64.64 0 0 0 .04 0s.017-.003.02 0a.052.052 0 0 1 .018-.02c.716-.96-6.652-26.587-40.8-64.15-35.39-38.93-38.94-35.834-44.69-43.354-5.752-7.52 12.84-29.63 21.244-44.672 6.862-12.278-6.03-16.61-26.158-21.874 13.163-17.51 15.716-29.26 13.56-58.272 9.45-.686 16.143-1.95 28.97-4.363 20.963-3.943 17.586-44.572-4.423-57.956-12.694-7.723-27.883-6.643-37.615-53.537-7.78-37.485-29.01-63.713-59.55-74.23 9.444-45.663 2.753-84.3-21.814-84.31-.22 0-.444-.007-.668 0zm-3.282 20.46c.128-.006.247-.002.373 0 14.918.042 16.657 38.314 11.95 65.09-6.318 35.932-19.638 42.47-20.852 47.638-1.352 5.756 1.993 30.377 4.52 40.94 7.825 1.884 13.64 8.95 13.64 17.353 0 9.843-7.984 17.825-17.826 17.825-9.845 0-17.828-7.982-17.828-17.825 0-6.512 3.49-12.217 8.707-15.33 1.823-10.236.44-40.39-3.54-46.36-2.21-3.32-16.26-16.92-25.55-45.124s-13.39-75.87 25.1-46.893c8.95-12.05 15.955-17.1 21.303-17.314zm21.874 79.868c15.824 4.74 29.484 16.307 36.967 31.094 13.99 24.436 10.458 52.202 20.832 77.767 6.155 17.08 17.015 23.3 31.877 31.406 9.93 5.416 7.47 20.19-5.09 14.976-4.333-1.798-8.28-3.667-11.87-5.64-5.716-16.195-19.275-31.252-34.275-43.865a121.14 121.14 0 0 1-1.71-7.822c-3.717-21.726-2.73-48.676-16.216-67.214-5.95-8.424-14.812-14.51-24.644-17.412a250.574 250.574 0 0 0 4.128-13.286zM213.92 117.59a228.037 228.037 0 0 0 6.507 13.128c-3.133 3.493-5.783 7.438-7.782 11.812-13.905 26.818-12.055 57.97-12.735 87.337-.613 15.854-5.27 44.39-32.704 66.074-6.882 5.44-16.485-4.38-6.053-14.033 12.34-11.42 24.777-39.098 25.057-55.58.128-29.842-.24-61.282 13.325-88.595 3.392-7.73 8.354-14.497 14.386-20.143zm62.48 113.927c.107-.003.208.003.315 0 .107-.003.207.003.314 0 .107-.003.206.002.313 0 .22-.004.432.002.65 0a74.268 74.268 0 0 1 16.96 1.808c-22.792 10.025-31.964 15.393-31.287 19.457.603 3.62 16.42 10.946 38.618 13.698l2.242 33.626c-14.196 2.652-25.844 10.58-37.42 25.51-.112-.095-.222-.18-.334-.275-34.184-29.184-43.366-67.684-40.27-73.878 2.04-4.08 22.75-19.152 49.9-19.948zm61.71 34.767c-2.516 12.923-3.752 24.42-4.56 34.412-3.964-.677-7.733-1.14-11.34-1.395-1.124-9.853-1.353-22.244-1.315-31.76a134.632 134.632 0 0 0 15.76-1.043c.504-.064.99-.138 1.456-.216zm-139.457 51.51h.04l.02.02v.02c-.004-.003-.08-.02-.08-.02l.02-.02zm.08.08c1.146.45 76.47 30.054 79.103 32.25 2.654 2.21 29.186 56.608 26.53 61.474-2.653 4.866-18.58 2.212-20.792 0-2.21-2.212-16.81-49.544-20.79-53.083-3.983-3.54-57.515-20.34-60.61-22.994-2.88-2.47-3.07-16.413-3.44-17.65zm106.872 5.482l2.477.51c-.923-.14-1.864-.29-2.812-.43l.334-.08zm8 4.972c.076-.003.16.003.235 0 .077-.003.16.003.236 0 .078-.003.158.002.236 0 .077-.002.156.002.235 0 .16-.003.31.002.47 0 5.33-.058 10.77.732 16.018 1.985-1.23 7.747-3.367 12.93-8.077 15.37-10.64 5.515-23.124 2.07-35.454-5.15 7.102-8.47 16.383-11.817 26.1-12.203zm25.273 19.122c9.733 2.212 16.803 9.748 16.803 9.748s-24.33 35.387-24.33 53.968c-10.617 1.327-19.455.874-21.224 1.316 6.193-35.39 20.79-55.3 28.752-65.032zM134.74 387.993c0-.003.017.002.02 0h.057a1.164 1.164 0 0 1 .078 0h.02a1.072 1.072 0 0 0 .06 0h.077c.04-.002.08 0 .118 0 .158-.004.314 0 .473 0 13.26-.107 30.51 1.446 41.31 4.146 13.367 3.34 7.717 10.425 5.76 17.686-2.355 8.727 2.64 36.29 7.506 53.987-23.45 8.848-56.616 12.382-92.45-10.18 7.963-16.37 22.12-39.38 19.024-48.23-3.096-8.847-3.1-15.475 7.96-16.802 2.8-.335 6.2-.535 9.944-.59a.49.49 0 0 0 .02 0h.018c.002 0-.002-.016 0-.02zm211.76 34.235c.023-.003.037.003.06 0a.985.985 0 0 1 .058 0h.237a.79.79 0 0 1 .058 0h.08c.046-.003.09.003.136 0 .194-.01.39 0 .59 0 6.347 0 11.495 5.148 11.495 11.497 0 6.35-5.148 11.497-11.497 11.497-6.35 0-11.498-5.147-11.498-11.497 0-5.938 4.502-10.886 10.278-11.497zm38.167 32.29c.023-.002.055.002.078 0h.295c.047-.003.09.003.137 0 .048-.003.09.002.138 0 .147-.006.303 0 .452 0 6.35 0 11.497 5.148 11.497 11.497 0 6.35-5.148 11.517-11.497 11.517-6.35 0-11.497-5.168-11.497-11.517 0-5.985 4.553-10.95 10.396-11.497z" fill-rule="evenodd"/></svg>