<svg xmlns="http://www.w3.org/2000/svg" width="512" height="512" version="1"><path d="M306.855.33c-36.038.816-71 21.527-77.262 70.923 0 0-61.12 21.64-125.412 45.83 1.297 11.986 2.916 22.913 5.12 33.032-10.004 32.54-17.138 72.148 3.8 76.443 16.147 3.312 20.137-9.54 20.814-19.896 14.272 19.237 35.21 36.96 66.465 56.967-8.754 22.844-16.05 43.143-14.737 59.866 1.178 15.02 19.892 46.617 32.692 66.664-4.295 1.24-7.92 4.424-9.738 12.997-3.15 14.854-19.355 81.922-19.355 81.922s48.626 27.903 97.238 26.553c48.61-1.35 87.32-29.254 87.32-29.254s-13.507-70.222-14.857-75.623c-1.136-4.543-1.313-12.28-7.498-15.157 27.844-40.46 35.94-50.474 36.75-73.963.473-13.676-8.595-32.512-16.975-46.89 9.404-12.675 10.114-25.015 6.04-44.81 49.013-59.198 42.875-140.035 5.737-191.615C367.557 12.876 337.33-.085 307.695.33c-.142.002-.278-.003-.42 0-.142.003-.28-.003-.42 0zm7.118 11.697c84.51-.67 112.702 135.774 58.847 190.956.265-1.628 8.6-54.03-10.198-91 0 0 8.283 54.11-21.635 70.025.636-11.453-.017-45.8-18.456-80.162.38 1.815 12.23 59.945-18.474 69.344 0-8.275-2.55-40.112-23.555-75.122 9.545 29.903 14.002 63.603-20.954 80.16.436-1.568-2.985-35.315-10.858-57.246-8.91-24.825-21.638-105.14 64.285-106.935.334-.007.67-.017 1-.02zm-90.74 74.463h.08a.603.603 0 0 0 .04 0h.08c.19-.01.33.01.42.04 3.82 1.273 8.272 15.913 7 19.095-1.274 3.183-102.477 40.1-106.296 38.192-3.82-1.91-7.38-13.59-4.46-18.456 2.722-4.535 93.997-37.958 103.137-38.87zm68.105 80.242l4.44 33.092 30.552-27.374 1.28 40.75 29.913-26.733s1.274 23.557-3.82 39.47c-8.91 3.184-56.005 5.713-86.56 4.44-29.82-1.243-48.677-13.414-49.568-13.997.016-.004.03-.015.04-.02l.02-.02.04-.02.02-.04.02-.02c.004-.008.017-.03.02-.04l.02-.04v-.02c.006-.025.016-.058.02-.08.214-1.358-1.56-7.29 6.72-19.435 9.547-14.004 26.093-21.635 26.093-21.635l5.74 26.733 35.01-35.012zm-158.683 5.538c.026-.004.055.003.08 0h.08c6.506-.248 34.824 37.277 81.5 59.387 48.38 22.915 144.498 4.452 150.227 6.998 5.73 2.546 1.906 18.472-.64 21.655s-68.755 17.183-136.23-.64c-67.473-17.823-100.57-80.854-95.477-87.22.015-.01.043-.03.06-.04.052-.028.123-.06.18-.08.066-.022.142-.048.22-.06zM280.68 280.286c.143-.003.278.003.42 0 .165-.004.335.003.5 0l1.14 30.612c-18.585-.574-33.49-5.808-58.126-15.056 6.412-9.806 19.877-14.71 56.067-15.556zm73.764 19.635c-4.172 25.073-8.356 59.646-18.016 66.786-10.352 7.652-18.902 6.302-27.454-.9s-10.347-14.85-9.897-27.454c.09-2.513.173-4.852.26-6.978 9.892-.536 33.516-1.96 35.292-3.38 1.553-1.243-3.535-8.28-6.84-12.517 8.487-3.682 17.095-8.765 26.654-15.556zm-133.99 7.3c9.506 3.575 17.58 6.582 24.915 9.017l-5.7 12.217s22.943 3.14 27.894 1.34c2.798-1.017 7.043-4.055 10.198-6.498 1.788.124 3.604.205 5.458.24l1.08 29.213s-11.254 5.844-17.556 13.496c-6.3 7.652-15.77 10.364-31.073-3.14-13.167-11.618-17.656-39.904-15.215-55.887zm70.225 80.84H290.877c2.442-.074 5.082.947 7.74 2.94 5.4 4.05 5.863 6.32 15.315 5.42 2.25 25.205-48.156 37.357-54.907.9 12.153-.9 21.593-.47 25.194-5.42 1.772-2.437 3.99-3.674 6.42-3.82h.04c-.002-.002 0-.017 0-.02zm-68.986 24.975h.1c4.046-.462 46.884 16.926 49.37 20.735 2.564 3.933 13.958 59.864 9.457 65.265-4.5 5.402-13.944 3.14-17.095-.46-3.15-3.6-8.117-49.956-10.818-54.007-2.7-4.05-31.05-13.505-33.752-17.556-2.7-4.05-.45-13.057 2.7-13.957h.04v-.02zm125.212 2.68h.08a.53.53 0 0 1 .02 0H347.306c.048-.003.096 0 .14 0 .23-.008.396.024.52.06 3.15.9 4.06 11.245 1.36 15.296-2.7 4.052-27.013 10.807-29.714 14.858-2.7 4.05-12.146 47.707-15.296 51.308-3.15 3.6-13.515 5.84-18.016.44-4.5-5.402 7.513-59.98 13.517-64.805 5.133-4.126 39.998-16.327 47.09-17.156z" fill-rule="evenodd" stroke="#000" stroke-width=".64"/></svg>