<svg xmlns="http://www.w3.org/2000/svg" width="512" height="512" version="1"><path d="M344.043.326c-.45.017-.892.05-1.347.06-10.668.232-18.94 5.395-25.506 14.15-22.114-6.81-44.392-9.944-65.465-9.89-.378.002-.747-.002-1.125 0-.188.002-.376 0-.563 0-.186.003-.376-.002-.563 0-.185.004-.377-.002-.563 0-.182.004-.376-.002-.56 0-47.03.883-87.57 17.667-105.945 44.36-34.11 49.557-15.272 84.924 7.034 95.333 13.713 6.4 47.345 3.327 68.24-18.31.837 8.077-1.14 17.532-5.45 28.197-11.715 6.025-21.47 12.904-28.22 18.914-15.11 13.455-26.123 29.494-39.214 45.225-1.092-.572-2.115-1.133-3.035-1.708-10.236-6.4-21.1 0-24.3 11.517-1.665 5.996-1.073 11.965 1.95 16.08-20.58 16.635-37.18 16.794-37.787 21.667-.64 5.12 5.47 21.696 33.265 28.16 3.88.903 8.115 1.185 12.643 1.046-9.76 7.96-22.872 19.78-22.872 25.828 0 3.53 2.77 9.483 6.27 15.597-7.028 5.36-13.95 13.41-13.95 20.864 0 7.477 6.61 16.886 15.58 20.683-7.357 12.22-11.27 19.08-11.74 22.833-.64 5.12 15.993 59.5 14.713 110.69 62.068-10.238 140.777-23.02 198.364-28.14-3.333-41.434 6.44-73.303 11.658-86.89 26.196.168 63.8-9.885 76.2-36.48-40.305-15.364-36.028-55.156-2.755-105.705 27.407-41.637 50.03-122.358 8.884-180.635 2.253-2.692 4.22-5.205 5.83-7.477 14.4-20.34 10.556-31.095-3.197-45.446-14.2-14.816-36.736-20.7-64.74-20.52-.256 0-.51-.006-.764 0-.097 0-.187-.003-.283 0-.084 0-.177-.004-.26 0-.075 0-.15-.004-.222 0-.064 0-.137-.004-.2 0zm4.884 13.748c.02-.002.04 0 .06 0h.18c.145-.004.298 0 .443 0 24.473-.165 64.957 11.963 56.6 35.717-2.592 7.37-19.577 30.464-24.762 36.22-27.464 30.496-39.385 35.96-67.735 63.918-12.835 11.28-13.39 30.016-22.23 43.938-2.833 8.537-16.434 9.196-20.26 1.186-3.15-9.498 3.253-19.062 10.31-25.003 8.403-4.853 10.84-17.146 12.14-26.573 7.858-35.417 11.718-69.22 23.738-103.634 3.765-11.807 11.505-23.425 24.986-25.284 1.93-.267 4.06-.42 6.35-.463.06 0 .122-.014.182-.02zM259.363 53.97c.112-.002.23.004.342 0 .112-.002.23.004.342 0 .112-.002.228.004.34 0 .115-.002.23.003.343 0 .114 0 .227.003.342 0 .115 0 .226.002.34 0 .47-.005.934.002 1.408 0 7.433 0 22.044 3.462 36.34 8-1.673 7.84-3.13 16.16-4.462 24.784-3.898 25.224-6.998 42.044-9.065 52.72-20.3-2.772-40.416 1.148-57.866 7.82 4.36-11.56 9.4-41.912 5.487-56.7-42.23 15.356-35.168-8.955-26.21-18.553 5.553-5.95 23.903-17.21 52.32-18.07zm113.02 56.662c10.116 14.87 17.78 35.284 18.934 64.42 1.374 34.685-15 69.915-25.325 98.307-.31-7.376-.577-15-.905-22.795-2.116-50.255-13.516-78.848-39.556-96.056 10.7-10.03 29.17-26.828 46.854-43.88zM270.7 152.62h.06a1.224 1.224 0 0 1 .08 0h.1c.107-.004.214 0 .322 0 3.686-.04 7.447.365 11.196 1.186-3.706 5.88-19.316 10.07-23.597 34.05-3.2 17.915 17.927 29.428 32.643 22.39 10.573-5.056 17.85-27.426 22.07-39.516 9.874 9.44 16.51 21.662 16.38 34.45-.35 35.318-11.812 56.952-19.576 92.62-5.644 25.928 12.938 61.907 64.118 70.992-16.29 13.312-32.83 18.578-52.983 13.306-37.455-9.8-46.61-48.964-53.705-66.088-7.53-20.846-27.37-35.298-48.5-40.16-25.16-6.69-51.342-.57-76.5 3.358-14.162 2.532-30.85 3.112-42.21-7.035 6.676-3.453 15.48-9.477 21.568-14.633a188.167 188.167 0 0 0 8.744-7.92h.02c1.38.026 2.853-.087 4.44-.34 15.996-2.56 42.567-2.276 64.62 1.93 27.074 5.16 40.32 7.673 55.676 18.55 15.357 10.88 45.408 9.594 44.16-16.642-1.28-26.874-20.492-31.992-37.768-26.873-17.277 5.12-32.628 9.61-60.782 6.412-18.916-2.15-34.65-5.76-46.048-9.83 13.96-16.778 27.362-33.725 47.395-48.9 20.934-15.86 52.683-21.244 67.997-21.287h.04c.007-.002.03-.018.04-.02zm-54.07 137.36a79.173 79.173 0 0 1 13.448 4.724c7.13 3.255 12.395 7.637 16.482 12.703l-37.868 59.797c-36.686 13.52-35.21-4.232-41.325-22.572-5.074-15.222-26.654-16.764-39.516-15.155-2.1-4.345-3.547-8.07-3.354-9.81.42-3.778 18.742-18.57 31.295-28.3h.02c2.274-.393 4.58-.802 6.915-1.185l2.714 16.683 51.192-16.884zm44.462 74.55c8.854 9.78 21.455 23.68 27.838 30.652-36.605 3.497-115.803 16.623-144.597 24.3-11.128 2.968-21.118-1.28-27.516-7.677-5.59-5.59 1.535-14.6 14.09-33.004 6.577-.92 10.768-.863 13.426 9.328 3.283 12.584 34.32 26.272 62.128-11.255l54.633-12.34zm41.968 40.883c.183-.003.36.003.542 0 .183-.003.363.002.543 0 .92-.01 1.836-.003 2.714 0-1.12 11.038-4.485 21.748-4.485 21.748s-106.852 16.644-122.848 20.483c-15.997 3.84-15.363 10.236-24.32 46.07l-26.23 3.838c-3.2-15.996 13.43-56.31 21.747-65.906 8.092-9.337 105.654-25.506 152.335-26.23z" fill-rule="evenodd" stroke="#000" stroke-width=".643"/></svg>