<svg xmlns="http://www.w3.org/2000/svg" width="512" height="512" version="1"><path d="M176.168.002c-15.537.876-27.91 13.82-27.91 29.574 0 14.754 10.818 26.99 24.955 29.202.547 6.35 1.283 13.275 1.64 20.073.987 18.727 13.785 159.137 8.385 165.56-5.614 6.68-29.567 2.464-44.35 1.97-14.775-.492-15.768 21.694 0 22.68 13.416.838 28.98 2.745 45.16 2.386.47 3.35.89 7.19 1.16 11.405.986 15.276-15.757 31.06-22.656 39.93-6.9 8.87-5.422 17.73 1.97 19.7 7.268 1.94 3.437 4.43 3.437 8.866 0 4.435-1.086 11.354 4.442 17.25 7.39 7.884-.07 13.957.48 26.115.428 9.38 7.135 16.55 22.658 22.46 9.237 35.363 4.367 78.16 2.978 94.83 45.827-6.9 158.165-34.003 170.484-41.394-1.97-15.276-11.33-69.487-9.85-78.85 1.217-7.71-2.23-14.087-7.62-14.995-.634-19.024 5.267-30.89 20.425-48.574 20.342-23.732 13.08-69.844-.744-78.434 4.642-73.865-20.04-158.073-27.823-190.12-8.377-34.492-13.306-39.916-22.175-39.423-6.22.344-72.747 4.326-113.83 8.71C207.035 12.9 193.91 0 177.81 0c-.192 0-.38-.004-.57 0-.125.002-.247-.004-.372 0-.062.002-.113-.002-.175 0-.062.002-.113-.003-.175 0-.06.003-.114-.003-.175 0-.06.003-.114-.004-.175 0zm132.087 33.186c.06-.002.116 0 .176 0 .24-.004.47 0 .7 0 9.385-.058 13.81.576 15.04 1.313 2.465 1.48 8.88 17.73 5.43 20.69-3.45 2.955-46.823 2.47-48.794 6.413-1.97 3.942 6.894 155.705 9.85 159.648 2.957 3.943 63.088-6.896 65.06-3.94 1.97 2.957 2.956 17.753-.986 19.724-3.943 1.97-30.562 5.404-74.91 10.332-44.35 4.928-74.91 7.41-76.88 4.947-1.97-2.464-3.45-13.318.985-18.738 4.435-5.42 59.146-4.43 63.09-9.85 3.94-5.42-6.917-158.673-10.86-161.137-3.94-2.464-60.59 11.33-64.533 8.865-3.942-2.463-5.923-20.193-2.473-22.656 3.447-2.464 32.53-8.886 74.907-12.828 20.196-1.88 34.218-2.64 43.65-2.76.182 0 .368-.015.547-.02zm-114.18 88.044c41.392 5.42 37.94 63.556 1.97 68.977-2.464-22.177-6.406-57.153-1.97-68.98zm73.004 144.455s-49.37 128.638-52.714 134.562c-3.873 6.862-15.112 3.945-20.293 1.355-6.9-3.45-7.87-12.323-5.407-16.265 2.464-3.94 1.48-8.36-.985-12.3-2.463-3.943 1.466-9.37 5.408-12.326 3.94-2.956 9.86-13.8 10.353-18.235.494-4.436-11.304-1.058-23.16-4.445-10.77-3.078 3.385-18.165 13.157-28.152 3.003 3.68 7.008 8.163 9.018 8.45 3.45.493 38.428-12.804 39.907-17.73 1.307-4.357-34.72-13.344-43.103-15.368-.52-1.774-.856-3.562-.745-5.342.256-4.096 1.58-6.585 4.378-9.632 13.968-1.016 38.304-2.75 64.183-4.574zm43.736 38.506c.02-.003.045.002.065 0h.2c1.568-.11 3.285.587 5.21 2.32 12.078 10.884 3.008 26.755 0 32.508-3.304 6.318-9.035 14.367-16.025 15.456-10.13 1.58-8.587 11.963-2.21 13.135 15.535 2.855 20.692-15.272 32.025-6.895 7.137 5.275 7.864 15.167 2.167 22.088-7.896 3.04-18.473 6.814-32.726 10.442-12.575 3.2-36.287 7.138-58.095 10.44l25.633-66.677c17.01-1.44 26.714-3.903 31.48-14.733 3.685-8.376 7.174-17.455 12.28-18.08zm14.03 101.353h.307c.22-.014.374-.013.482 0 4.612.577 5.922 12.333 3.458 16.768-2.464 4.435-97.68 29.15-100.52 25.13-3.77-5.33-2.132-18.29 3.436-20.708 7.386-3.207 83.46-20.31 92.837-21.19zm4.796 34.478h.175c.114-.002.195.013.262.022 4.612.576 5.922 12.31 3.46 16.746-2.466 4.435-101.356 32.39-104.486 28.59-3.77-4.577-2.11-17.718 3.46-20.688 7.188-3.834 88.967-24.003 97.062-24.648h.044l.022-.022z" fill-rule="evenodd"/></svg>