<svg xmlns="http://www.w3.org/2000/svg" width="512" height="512" version="1"><path d="M353.836.355c-.053.006-.093.02-.153.022-23.165.67-39.092 24.895-79.812 25.5-37.417.557-57.693-22.81-85.884-17.76-13.55 2.428-17.734 8.902-18.462 24.996-1.83-.362-3.61-.535-5.328-.504-17.744.322-28.95 20.58-23.417 37.756-13.697 12.917-27.856 27.952-40.04 42.318 16.88 22.334 43.923 36.573 72.424 35.827.958 18.526 1.766 33.248.33 43.898-1.748 12.94 1.1 23.934 12.606 24.71.43 12.26-1.156 20.93-6.972 26.422-8.884 8.39-16.782 15.784-22.212 21.707s-6.91 12.35 0 23.702a33.317 33.317 0 0 1 2.127 4.143c-12.008 10.416-18.428 27.676-17.935 37.8.367 7.55 6.337 15.942 16.86 19.12-1.644 10.833-1.403 20.61 3.378 27.78 5.922 8.886 14.32 14.32 34.555 14.32 2.733 0 5.34.19 7.807.504a60054.902 60054.902 0 0 0-27.56 118.95s201.863-34.07 202.356-41.967c.375-5.993-6.414-63.162-4.933-79.943 1.458-16.52 5.303-34.97-5.876-34.6-.178.006-.34.028-.527.044-.225.02-.485.04-.767.066 5.116-12.223 11.44-19 23.46-33.635 22.705-27.638 26.164-53.31 16.292-81.937a56.92 56.92 0 0 0-1.93-4.824c14.696-94.603-25.01-229.844-41.988-233.56-2.752-.602-5.382-.88-7.915-.855-.11 0-.225-.004-.33 0h-.088c-.02 0-.048-.002-.066 0zm-187.01 43.7c.04-.002.072.002.11 0H167.046c1.865-.074 3.833.373 5.81 1.425 12.865 6.838 5.772 22.47-4.757 29.622 1.33 19.47 3.43 35.965 5.13 55.408-21.042 1.187-40.405-5.97-54.772-20.742 8.91-9.672 26.868-27.784 36.31-36.968-5.23-13.025 2.11-28.125 12.06-28.745zm202.556 2.806h.022l.022.023v.022c.596.984 5.14 15.38 10.81 34.512-14.56 14.807-81.442 24.918-125.616 14.8-9.87 24.432-28.865 54.3-67.116 53.807 0 0-.74-22.452 0-35.038 8.39-3.702 34.05-16.8 46.637-57.27 23.692 6.908 79.962 16.045 135.242-10.855zM274.025 201.75c4.5-.05 9.123.065 13.857.373-4.602 15.93-12.366 41.02-20.413 59.202-13.328 30.108-28.155 51.33-28.155 51.33s9.63 10.37 21.73 10.37c12.34 0 24.184-6.906 24.184-6.906s6.407 11.346 15.786 15.787c4.875 2.308 12.826 1.585 21.882-3.202l29.864 20.656a108.124 108.124 0 0 0-3.31 7.893c-26.163 3.512-74.797 10.91-116.605 20.018 3.31-13 6.75-27.448 6.49-30.565-36.03 31.095-42.947 29.118-56.767 28.13-13.82-.986-13.825-9.39-12.344-17.78.223-1.266.706-3.27 1.337-5.81 15.514-.646 38.315-4.815 50.496-20.83-10.86-3.456-11.35-9.847-9.385-22.717 1.802-11.797-8.878-23.927-30.15-23.46-1.417.03-2.872.115-4.384.262-2.05.2-4.02.595-5.92 1.162-3.51-6.62-3.825-10.062 1.974-16.95 5.376-6.382 14.62-14.81 20.61-23.285 3.4 4.745 7.607 10.13 9.977 11.446 4.444 2.47 31.574-6.412 34.535-7.893 2.962-1.48 4.45-7.41 4.45-7.41l-43.128-21.773c-.102-1.654-.242-3.32-.394-4.956 15.92-4.21 41.78-12.734 73.782-13.09zm27.057 1.732c1.288.182 2.58.38 3.88.592 41.4 6.775 74.182 33.065 87.42 45.17 5.562 14.67 6.667 27.123-2.52 46.13-8.562 17.714-19.43 26.068-29.097 40.06l-25.456-15.48c4.544-4.027 9.145-9.06 13.593-15.194 12.093-16.676 16.488-51.705 0-59.223-14.183-6.467-32.29-1.173-32.583 1.973-.57 6.14-1.486 18.258-11.357 33.065-9.872 14.807-26.652 31.587-49.356 27.145 18.747-27.92 37.803-76.476 45.475-104.238zm30.04 57.206c.062-.003.132.002.196 0 .098-.004.186.002.285 0 8.484-.182 19.862 4.896 16.796 19.887-4.412 21.564-31.9 42.884-44.424 35.543-7.157-4.196-.03-17.39 7.608-27.803 7.27-9.91 10.853-21.51 11.643-24.03.635-2.03 3.896-3.413 7.894-3.597zM180.99 298.29c.066-.003.13.002.197 0 .087-.003.173.002.262 0 .118-.003.23.002.35 0 .16-.003.32.002.483 0 .216-.004.44.003.658 0 .292-.004.58.002.877 0 4.643-.034 9.75.186 12.76 3.903.437 8.39-1.612 17.633 2.106 25.675-10.182 4.39-22.647 8.02-34.315 5.942-4.106.062-7.93-2.87-7.914-7.17 1.927-12.69 10.478-26.182 23.943-28.328.192.002.392-.014.59-.022zm121.734 99.26a.53.53 0 0 1 .022 0h.066a1.323 1.323 0 0 1 .044 0h.066a1.602 1.602 0 0 1 .043 0h.067c.195-.013.345-.005.46 0 4.686.213 11.29 9.607 8.377 23.198-2.962 13.82-9.906 19.984-15.283 21.225-6.416 1.48-88.844 19.252-91.805 17.277-2.962-1.974 5.952-43.62 10.35-44.422 4.46-.813 78.05-16.396 87.594-17.278zm-25.083 11.336c-7.357.596-13.156 6.81-13.156 14.318 0 7.9 6.417 14.318 14.318 14.318 7.9 0 14.317-6.417 14.317-14.318 0-7.9-6.416-14.318-14.317-14.318h-.088c-.154 0-.308-.006-.46 0-.06.002-.116-.003-.176 0-.058.003-.115-.004-.174 0h-.176c-.03.002-.06-.002-.087 0z" fill-rule="evenodd" stroke="#000" stroke-width=".702"/></svg>