<svg xmlns="http://www.w3.org/2000/svg" width="512" height="512" version="1"><path d="M229.49.002c-14.56.638-21.01 8.61-22.4 33.42-1.68.09-3.385.21-5.106.308-20.71 1.172-28.115 11.344-34.035 29.104-5.92 17.76-20.712 100.132-19.725 101.12-6.906 42.426 1.174 45.125 24.173 48.345 5.422.758 11.382 1.21 17.533 1.555-7.583 11.136-15.153 22.29-22.112 33.816h-.022c-5.973 2.827-15.455 3.964-27.154-3.615 0 .856 4.556 34.69 27.066 35.02-3.27 11.045-6.018 23.115.022 33.51 4.07 6.21 10.654 9.092 17.708 10.454l-.548 26.188c-26.587 2.49-53.124 6.548-79.028 12.91-12.634 4.547-23.85 17.27-21.74 31.404 2.315 9.493 13.117 13.802 22.135 13.084 12.2.727 24.43.688 36.643.416-5.106 6.49-4.885 15.844-.614 22.705 4.778 10.846 9.596 21.908 15.89 31.953-3.803 12.59-7.614 25.17-11.42 37.76 50.035 14.356 104.23 13.272 154.046-1.643 5.574 2.28 11.15 4.573 16.722 6.86 5.27-2.924 9.827-6.68 13.697-11.024 38.297 15.053 62.866 22.268 70.153 16.196 8.88-7.4 25.148-19.24 26.628-48.347 1.48-29.107-9.358-59.19-30.57-68.07-5.7-2.386-13.46-5.98-21.96-9.863 14.208-13.308 24.645-23.184 30.11-52.795 5.472-29.632-6.9-54.733-23.36-80.87 7.298-31.9 12.426-80.948 7.735-108.153-4.933-28.613-8.668-79.233-32.566-85.34-41.85-10.691-70.232-16.734-91.412-20.008C265.646 9.32 258.19 2.347 238.54.396c-2.685-.266-5.156-.413-7.452-.394-.183 0-.366-.004-.547 0-.12.002-.232-.004-.35 0-.06 0-.117-.002-.175 0-.06.002-.118-.002-.176 0-.06.002-.12-.002-.176 0-.058.002-.118-.003-.175 0zm27.152 47.82a7661.84 7661.84 0 0 0 27.943 6.837c1.317 8.493 3.146 20.626 4.733 32.303 2.88 21.19.848 38.527 7.43 59.063 6.38 12.99 22.895 24.683 37.607 20.776 13.28-5.308 16.893-20.254 17.204-33.443.508-10.79-10.95-47.168-18.98-66.844 8.758 1.92 17.943 2.513 25.576 7.56 16.63 21.077 22.22 50.06 16.7 76.202-3.302 21.598-19.876 42.164-42.276 45.212-29.563 3.548-58.04-18.932-65.002-47.14-.843-7.14-1.49-14.303-2.06-21.478-16.21 28.05-36.78 29.805-52.094 29.805-16.744 0-50.914-19.54-43.24-51.633 21.922 7.737 49.784 35.133 94.085 5.106-1.466-20.212-3.028-40.405-7.3-60.246l-.328-2.082zm53.19 163.01c.072-.005.146.002.22 0 .073-.004.144 0 .218 0 11.678-.278 25.122 10.942 17.467 22.813-7.274 11.278-21.616 35.58-35.57 50.23a82.71 82.71 0 0 1-2.914 2.894c10.155 7.183 20.52 14.054 27.7 18.715-9.25 4.96-33.995 6-51.698 6.07 8.708-11.292 17.817-18.917 23.998-24.786a453.008 453.008 0 0 1-12.755-9.337 38.86 38.86 0 0 1-1.93-1.557c-.016-.016-.047-.05-.065-.065l-.043-.02-.022-.023-.022-.022v-.022l-.022-.022-.088-.064-.044-.044c-.08-.07-.162-.127-.24-.197-.048-.043-.085-.09-.132-.132l-.022-.022-.044-.043-.022-.022h-.022l-.02-.02c-.03-.03-.06-.062-.09-.09-.015-.013-.028-.03-.043-.043-.024-.022-.042-.043-.066-.066l-.02-.022h-.022l-.022-.02-.022-.023v-.02l-.022-.023-.022-.022-.044-.022-.022-.022-.022-.02v-.023l-.022-.022-.065-.043c-.004-.004-.018-.02-.022-.022l-.022-.022-.02-.022-.045-.022-.022-.022-.022-.022c0-.003-.018-.02-.02-.022-.02-.022-.048-.065-.066-.087-.002-.002-.02-.02-.022-.02a.54.54 0 0 0-.022 0l-.022-.023-.022-.022-.022-.044c-.002 0-.02-.02-.022-.02h-.022l-.02-.023-.023-.022-.022-.043-.022-.022-.044-.044-.067-.066-.022-.022h-.02l-.022-.022-.022-.02v-.023l-.022-.022-.022-.02c-.008-.005-.036-.02-.044-.023l-.022-.022-.022-.022v-.022c-.004-.003-.017-.017-.022-.02l-.043-.023-.023-.02-.022-.023v-.022c-.124-.126-.25-.245-.373-.373-.024-.027-.04-.04-.065-.067l-.044-.043c-.02-.022-.046-.045-.066-.066-.02-.023-.044-.043-.066-.066l-.042-.044c-.017-.02-.05-.067-.066-.087l-.044-.044c-.028-.03-.06-.057-.088-.088-.004-.004-.018-.018-.02-.022-.08-.083-.144-.157-.22-.24-.03-.032-.06-.057-.088-.088-.004-.008-.02-.037-.022-.044-.03-.03-.06-.055-.088-.087-.055-.06-.1-.114-.153-.175l-.045-.044c-.017-.02-.05-.067-.066-.088l-.045-.044c-.064-.073-.11-.145-.175-.22l-.022-.02-.066-.066-.02-.022a1.192 1.192 0 0 1-.023-.044c-.03-.032-.062-.055-.09-.088l-.02-.022v-.02l-.067-.067-.022-.022-.02-.043-.066-.066c-.002 0-.02-.018-.022-.02l-.022-.044-.044-.044c-.016-.022-.05-.066-.065-.088-.036-.045-.072-.086-.11-.13-.003-.005-.017-.02-.02-.023-.065-.078-.135-.16-.198-.24v-.022c-.026-.033-.062-.055-.088-.088-.063-.08-.134-.16-.197-.24v-.023c15.85-16.02 20.305-37.284 29.06-52.773 2.54-4.494 6.814-6.547 11.396-6.772zm-106.752 3.68c17.71.844 34.802 1.983 42.823 8.153 10.374 7.98 10.887 28.938 21.28 44.708-9.68 10.505-19.46 20.916-30.2 30.31-9.78 9.522-23.168 15.605-37.015 15.363-7.68-.672-17.203.268-22.595-6.334-4.59-9.553-.094-19.873 2.74-29.41 13.18 11.664 45.75 13.555 48.587-29.543-6.672 7.91-31.81 18.364-49.048 2.168 7.19-12.01 15.387-23.666 23.428-35.415zm166.187 47.47c12.834 12.56 19.02 31.746 19.57 54.833.605 25.388-2.57 30.408-28.643 59.896-13.81-6.043-27.522-11.465-36.205-12.82-.046-7.555.41-18.28 2.06-33.115 2.06-18.543 8.015-32.864 13.52-42.626 11.282 16.306 19.01 38.31 9.49 66.338 18.248-21.29 24.306-35.677 5.677-81.548 5.175-5.04 10.433-8.6 14.53-10.958zm-152.27 59.983c10.628 12.605 14.64 29.25 15.034 41.793-10.493-5.117-21.21-10.23-32.5-13.28l.526-26.212a59.45 59.45 0 0 0 16.94-2.3zm99.06 1.38l-5.83 43.81c-8.582 3.36-22.198 7.362-35.767 9.797-5.143-.2-10.29-.4-15.43-.592-6.126-1.556-11.616-4.797-17.203-7.802 2.566-17.562 7.78-31.49 14.004-42.714l60.226-2.498zm-126.017 36.71l1.425.022c16.902 3.917 32.374 11.92 47.82 19.833.63.494 1.063.832 1.25.965v-.022c.005-.092.015-.194.02-.285 4.257 2.178 8.513 4.338 12.8 6.4.078.005.162.015.24.02-.473 7.953-1.664 20.934-4.623 34.694-3.383 15.73-9.09 31.09-12.34 39.207-10.075 1.11-19.895 4.834-29.87 7.056-8.1.715-15.95 4.968-24.24 3.703-10.727-5.798-16.292-17.924-21.608-28.557-3.28-8.842-10.36-16.512-10.41-26.3 2.222-7.198 10.81-8.837 17.073-10.87 4.966.023 7.703-7.933 2.608-10.014-18.63-1.216-37.4.794-56.083-.11-6.15-1.063-14.365 1.444-18.694-4.077-1.362-8.287 5.943-15.448 13.062-18.52 26.66-6.917 54.134-10.686 81.57-13.148zm109.03 17.84c.833.03 1.667.057 2.5.087-.835-.03-1.664-.057-2.5-.088zm26.037.854c.088.002.175.018.263.02-.088-.002-.175.004-.263 0v-.02zm-84.53 2.168v.022h.023v-.022h-.022zm21.83 6.685c24.383 1.533 48.906 1.656 73.33 2.76 2.462 15.68 2.784 31.703 2.278 47.58.108 19.632-5.043 41.26-21.192 53.803-23.61-8.454-46.84-18.73-70.262-28.162 3.325-7.22 9.155-21.244 12.537-37.475 3.152-15.132 3.48-29.845 3.31-38.507zm101.797 59.917c.044-.003.088.002.132 0 .066-.004.13.002.197 0a10.423 10.423 0 0 1 4.208.745c6.704 2.674 9.37 11.826 5.94 20.426-3.43 8.6-11.662 13.413-18.365 10.74-6.703-2.674-9.348-11.826-5.917-20.426 2.68-6.72 8.285-11.154 13.806-11.484zm-205.722 14.662l.153.24c-.05-.076-.105-.163-.153-.24zm188.102.68c-.032.132-.077.26-.11.394.034-.134.078-.26.11-.395zm-187.27.613c.078.118.164.233.242.35-.076-.114-.166-.235-.242-.35zm187.073.175c-.033.133-.076.262-.11.395.035-.134.076-.26.11-.395zm-185.78 1.775c.08.117.162.213.242.33-.08-.116-.164-.214-.242-.33zm3.113 4.274c.08.103.14.202.22.306-.08-.1-.143-.206-.22-.307zm73.132 2.037l-1.38.373 1.38-.373zm-71.423.132c.123.15.246.308.372.46-.124-.15-.25-.31-.373-.46zm1.314 1.577c.05.058.104.117.153.175l-.153-.175zm63.227.13c-.46.122-.92.253-1.38.374.46-.12.92-.25 1.38-.372zm-62.854.308c.11.126.22.247.33.372-.11-.122-.222-.25-.33-.372zm59.392.592c-.46.12-.92.254-1.38.372.46-.12.92-.254 1.38-.373zm-6.224 1.6c-.46.115-.92.214-1.38.328.46-.114.92-.213 1.38-.33zm121.85.175c-.035.085-.07.156-.108.24.034-.076.076-.163.11-.24zm-171.423 1.337c.05.04.104.067.154.108-.05-.04-.104-.067-.153-.11zm.527.415l.087.066c-.03-.023-.058-.04-.087-.065zm.306.24l.088.067-.087-.066zm1.03.768c.054.037.1.073.154.11.05.034.104.076.153.11-.054-.038-.1-.074-.153-.11-.054-.037-.1-.072-.154-.11zm.33.22c.053.035.098.072.153.11.03.02.056.044.087.065-.027-.018-.06-.048-.087-.066-.05-.033-.104-.076-.154-.11zm33.377.153c-.652.147-1.3.315-1.95.46.645-.143 1.304-.315 1.95-.46zm-32.063.68c.052.03.102.078.154.11-.056-.034-.097-.077-.153-.11zm28.732.087c-.466.102-.94.185-1.404.285.465-.1.938-.183 1.403-.285zm-27.703.482c.082.043.16.11.24.154-.086-.046-.153-.11-.24-.155zm24.217.263c-.465.098-.937.188-1.403.285.467-.097.94-.186 1.404-.285zm-23.515.11c.08.04.157.07.24.11-.083-.04-.16-.07-.24-.11zm.787.372c.06.027.116.04.176.066-.06-.026-.116-.04-.176-.066zm.35.154c.06.026.116.04.176.066-.06-.025-.115-.04-.175-.066zm18.892.088l-1.403.285 1.402-.285zm-18.08.24c.06.024.135.044.196.067-.06-.024-.136-.043-.197-.067zm.92.33c.056.02.118.047.175.066-.062-.02-.114-.045-.176-.066zm13.653.13c-.05.02-.103.05-.153.067.056-.02.097-.047.153-.067zm-12.448.242c.062.018.135.048.197.066-.063-.017-.135-.048-.197-.066zm.855.22c.15.035.308.075.46.11-.158-.036-.303-.072-.46-.11zm9.796.065zm-8.657.197c.063.012.133.01.196.022-.063-.012-.133-.01-.197-.023zm7.516.043c.032-.01.056.01.088 0-.058.01-.118.012-.175.022a.703.703 0 0 1 .086-.022zm-7.144.022c.063.01.133.01.197.022-.065-.01-.135-.01-.198-.022zm6.75.043c.032-.01.077.01.11 0-.065.01-.134.012-.198.022a.56.56 0 0 1 .088-.022zm-6.16.043c.065.01.113.013.177.022-.06-.01-.12-.013-.177-.022zm5.875 0h.088c-.065.01-.112.013-.176.022.03-.01.055-.018.087-.022zm-.482.066c.032 0 .077.01.11 0-.065.01-.134.015-.198.022-.064.01-.133.015-.197.022.064-.01.133-.015.197-.022.032 0 .056-.018.088-.022zm-3.945.088c.064.01.11.017.175.022a1.75 1.75 0 0 0-.175-.022zm.372.022c.065 0 .133.02.198.022-.065 0-.133-.018-.198-.022zm2.324 0h.087c-.058 0-.117.02-.175.022.032 0 .055-.02.088-.022zm-1.84.022c.063 0 .13.02.196.022-.065 0-.133-.02-.197-.022zm1.27 0h.087c-.064 0-.132.02-.197.022.032 0 .077-.02.11-.022zm151.087 1.534c-.05.08-.083.162-.132.24.048-.076.086-.163.133-.24zm-4.23 6.092c-.083.106-.157.224-.24.33.083-.106.156-.224.24-.33zm-.614.79l-.242.284c.08-.098.16-.187.24-.285z" fill-rule="evenodd"/></svg>