<svg xmlns="http://www.w3.org/2000/svg" width="512" height="512"><path d="M332.44.002c-14.19 1.353-33.03 9.786-48.836 44.825-.404-.838-13.584-27.682-44.76-39.926.94 1.326 10.636 16.848-10.426 66.87 0 0-11.743-27.613-44.175-48.314-9.792 52.634-13.066 75.41 2.688 126.108-2.506 12.078-3.2 23.552 4.23 31.907 6.054 6.81 14.582 14.15 13.546 18.75-63.23 21.408-108.79 81.283-108.79 151.707C95.916 440.294 167.643 512 256.01 512c88.37 0 160.075-71.706 160.075-160.074 0-70.09-45.103-129.738-107.858-151.404-.586-8.005 1.57-12.047 11.965-16.972 13.11-6.21 8.284-32.43-7.586-41.4-1.56-.88-3.943-1.868-6.98-2.904.24-11.044 8.78-21.54 17.32-29.544 11.04-10.35 13.792-39.315 6.892-51.046-6.9-11.73-7.813-26.472 2.774-58.654-.055.007-.118-.007-.173 0zm-75.042 37.26c15.87 21.39 12.416 55.19 20.007 55.88 7.59.69 11.74-38.643 31.06-54.514 11.04 28.29 17.93 46.93-2.08 64.18-20.01 17.252-18.155 28.278-18.64 40.708-.462 11.77-1.363 17.958-17.233 20.028-15.87 2.07-28.995-20.023-31.755-52.455-2.76-32.433 21.4-60.028 18.64-73.83zM198.744 53.13s10.353 16.57 17.254 35.2c6.9 18.63 3.45 38.635 24.84 73.827-.003 0-.02.02-.022.02-.003.008-.017.02-.02.023a.125.125 0 0 1-.023.02.228.228 0 0 1-.043.023c-1.51.67-18.065 1.003-36.48-18.728-19.32-20.7-19.997-49.675-5.506-90.387zm38.28 166.315c-51.063 60.723-3.43 64.06 34.853 50.7 38.178-13.324 121.78 6.21 131.44 70.727-27.255-28.982-83.356-40.63-135.58 13.46-48.302 50.027-117.65 94.34-146.635 22.78-20.68-51.053 10-148.696 115.92-157.667zm113.86 212.53c-14.835 50.37-76.594 69.338-116.96 40.012 26.91-3.45 86.254-23.797 116.96-40.013zm-194.234 12.07c14.146 6.9 26.207 15.166 34.833 30.347-15.526-2.415-30.003-14.475-34.833-30.346z"/></svg>