<svg xmlns="http://www.w3.org/2000/svg" width="512" height="512" version="1"><path style="border:3px solid #000" d="M250.588.304c-58.08.897-110.45 29.808-106.29 43.954 4.044 13.75 25.11 53.81 22.474 99.457-6.403 3.132-36.482 19.204-33.458 43.39 2.143 17.145 13.19 26.18 29.553 30.042 1.07 7.382 2.52 17.508 3.98 27.958-5.93 1.108-13.345 2.832-16.203 4.975-5.072 3.804-11.41 14.795-22.4 37.195-10.537 21.48-24.1 29.167-22.832 33.816 1.268 4.65 20.297 18.178 20.297 18.178s-38.9 13.515-51.58 19.433c-12.68 5.917-28.483 18.318-9.727 27.488 19.02 9.298 18.502 5.87 47.353 29.572 22.8 18.73 33.008 32.293 38.452 38.883 8.03 9.72 15.22-7.605 26.21-25.78 8.674-14.344 19.437-23.246 10.984-39.73-7.08-13.807-19.01-39.73-17.743-55.37 1.23-15.15 4.44-21.173 4.637-21.535.18.102 5.93 3.44 6.76 8.016.846 4.65.19 24.73 5.07 38.04 4.65 12.68 15.234 24.938 21.574 18.175 6.34-6.76 25.766-40.58 36.33-50.3 10.57-9.72 19.866-16.48 22.4-11.83 2.538 4.65-18.593 29.167-44.797 71.855-26.205 42.688-53.677 90.435-62.13 109.032-8.453 18.596-5.066 18.185 8.036 14.38 13.965-8.12 167.112-46.89 179.63-48.61 12.81-1.76 18.59-8.03 8.45-19.864-10.146-11.835-69.436-73.93-73.96-85.375-7.186-18.174-5.913-19.448 8.88-6.346 8.514 7.54 17.313 17.75 14.777 4.225-2.536-13.526-8.026-44.788-9.294-52.818-1.25-7.92-.848-13.95 5.914-16.486 6.763-2.536 9.99 1.436 11.848 8.862 2.536 10.143 8.448 29.162 10.984 39.73 1.785 7.442 2.117 10.57 9.725 8.035 7.607-2.535 37.19-15.206 46.49-18.587 9.297-3.382 14.793-4.228 18.174 2.534 3.38 6.764-7.19 10.14-13.107 13.52-5.917 3.38-51.574 22.83-58.336 27.056-6.763 4.227-9.3 7.6 0 17.744 9.298 10.144 30.432 31.277 38.885 39.73 8.453 8.453 10.03 8.02 25.366 6.347 23.246-2.536 54.955-30.864 60.027-38.472 5.07-7.608 6.763-15.206-1.69-20.278-8.453-5.072-23.675-16.915-27.9-21.142-4.228-4.227-10.987-5.91-6.76-14.364 4.226-8.45.83-8.03-6.78-15.64-7.607-7.606-21.672-22.882-23.656-41.85-3.804-36.35-13.99-25.614-9.088-43.73 5.684-20.994 14.854-18.647 21.555-17.423 3.408 1.39 6.036.986 7.81-2.234 8.66-15.724 7.44-43.88-39.712-56.665-1.94-51.072 14.833-81.602 30.417-123.395C337.025 3.67 313.42.305 253.348.305c-.693 0-1.392-.008-2.084 0-.228.002-.448-.004-.676 0zm111.773 40.67c.046-.003.09 0 .135 0 .043-.003.088 0 .13 0 .044-.003.09 0 .132 0 .087-.004.178 0 .263 0 .086-.004.177 0 .262 0 6.134-.13 10.51 1.205 10.93 1.97l.018.038c.792 2.27-7.872 20.655-14.25 42.17-6.38 21.516-9.848 44.48-12.807 45.326-5.916 1.69-8.444-4.225-16.897-5.07-8.453-.845-11.845 4.227-16.917-.845-5.074-5.072-2.544-24.525 12.672-57.492 9.426-20.42 25.378-25.62 36.33-26.095zM219.348 110.33c.096 0 .187.003.282 0 .096 0 .202.003.3 0 .1 0 .2.002.3 0 .21-.002.414.002.62 0 4.79-.026 8.045.39 9.462 1.766 2.537 2.465 2.54 9.487 3.155 21.742.77 15.468.254 22.492-2.74 25.573-2.774 2.858-7.724 2.67-19.828 2.97-11.806.3-16.726.437-19.453-2.18-2.727-2.613-3.4-9.64-3.4-22.19s-.664-21.136 1.353-23.94c1.946-2.706 9.418-2.715 19.565-3.25 3.932-.207 7.41-.422 10.383-.49zm-9.914 11.21c-.25.01-.503.033-.77.038-4.033.07-8.07 2.536-7.772 13.744.3 11.207.45 15.546 7.774 15.546 8.967 0 9.856-4.185 9.408-18.38-.322-10.127-.922-10.99-7.415-10.948-.153 0-.31-.003-.47 0-.12.002-.234-.003-.357 0-.092.002-.186-.004-.28 0-.037 0-.078-.002-.114 0zm108.094 22.118c.022-.002.053 0 .075 0h.094c.116-.004.223 0 .338 0 14.52-.144 25.12 4.962 24.917 8.787-.362 6.806-32.654 1.368-77.357 25.8-64.342 35.162-74.372 27.46-74.372 23.656 0-3.8 11.816-6.812 28.316-15.64 18.174-9.72 46.918-24.926 72.7-36.76 8.762-4.022 17.447-5.657 25.103-5.82.065-.002.12-.014.187-.02zm7.08 40.82c8.096-.282 16.592 3.667 30.604 9.82 17.33 7.607 13.51 14.79 12.24 25.778-1.265 10.99-7.59 21.977-13.93 22.4-6.34.423-3.38-6.333-4.224-13.52-.845-7.184-3.385-17.33-11.416-17.33-8.03 0-7.614 10.99-8.88 19.866-1.27 8.876-7.603 17.74-14.365 22.813-6.615 4.96-19.297 10.734-20.255 10.984.88-.936 11.976-37.855 15.17-48.59 4.648-15.64-.834-28.327 9.31-31.286a23.247 23.247 0 0 1 5.745-.94zm-27.04 2.158h.02c2.816 12.677 4.403 37.883-25.854 92.772-15.843 28.74-29.8 30.055-47.973 31.957-38.08 3.985-45.42-11.474-42.397-22.813 5.566-4.36 12.077-8.45 16.186-8.45 10.99 0 16.064 6.76 28.744 5.07 12.68-1.69 22.83-17.76 22.83-17.76s-14.377 2.538-21.985-6.76c-6.113-7.47-12.153-11.62-19.92-13.426-.704-4.56-1.114-9.946-.36-14.476.8-4.8 2.55-10.544 4.168-15.265 1.734-.302 3.453-.633 5.162-.995h.02c4.542.224 6.094 2.12 9.65 6.12 6.763 7.61 13.953 12.677 28.746 8.45 12.2-3.485 19.865-13.513 20.71-24.502.485-6.31 3.06-10.82 7.247-14.308l.02-.018h.037l.018-.02.02-.018c4.978-2.01 9.938-3.892 14.907-5.557zM177.31 219.213c5.515.37 11.396.372 17.554.075l-4.956 29.76c-3.584 1.52-7.437 3.5-11.115 5.576-1.01-13.245-1.366-26.373-1.484-35.41z" fill-rule="evenodd"/></svg>