<svg xmlns="http://www.w3.org/2000/svg" width="512" height="512" version="1"><path d="M286.98.002v.02h-.04c-33.708.524-66.968 19.402-82.362 40.66-10.145 14.01-14.593 42.886-4.348 75.147l-34.308 49.355c-4.77-10.226-18.366-16.717-33.526-15.11-17.997 1.91-31.423 14.516-29.978 28.136.658 6.208 4.295 11.563 9.76 15.37l10.16 132.86c-22.724 25.087-45.41 85.05-45.41 85.05s-11.28-4.96-16.693-2.706c-5.414 2.256-11.455 54.603-12.184 60.44-.9 7.217 30.33 36.236 77.594 41.942 49.865 6.02 91.568-22.545 161.94-22.545 68.168 0 86.163 5.418 141.196 14.89 8.12-8.12 11.735-42.414 6.773-83.464 0 0 13.98-1.35 27.514-9.017 0 0-18.505-47.36-21.663-56.833-3.158-9.473 1.356-26.62-6.312-32.484-7.67-5.864-50.972 9.018-69.016 8.116-18.044-.903-15.34-14.43-15.79-36.533-.425-20.792-3.65-30.026 10.24-43.064 30.318 15.382 56.795 27.672 59.235 25.01 5.73-6.254-28.427-84.79-42.862-122.682 0 0 55.946 17.13 87.07-14.45 0 0-27.503-10.825-62.682-34.726 1.248-.285 41.34-9.777 61.32-57.734 0 0-40.145 10.827-91.118 1.805 0 0 21.198-9.94 28.415-31.14-19.397.45-49.157-2.702-89.756-13.528C302.89.852 295.46-.026 288.042.002c-.182 0-.376-.004-.56 0-.047 0-.096-.002-.14 0h-.24a1.212 1.212 0 0 1-.04 0h-.08zm.682 14.127c28.838 3.167 51.696 13.053 80.618 15.75-12.426 12.5-20.008 15.464-30.36 25.59 37.48 8.107 49.087 9.517 88.074 11.923-19.297 16.815-27.87 25.094-52.123 34.408 23.278 17.003 26.764 23.096 52.285 36.533-22.9 7.097-47.33 2.02-69.477-5.31a.21.21 0 0 0-.06-.02h-.02c-.003 0-.016-.002-.02 0a.14.14 0 0 0-.04.04c-.002.003-.018.015-.02.02-.39 1.153 5.033 15.714 12.445 35.108-20.224-10.77-46.716-26.33-61.52-40.88L316 184.124s-28.868-21.637-50.52-55.47l1.642 61.522c-24.226-17.49-44.566-41.752-55.047-69.136-7.684-20.915-7.674-48.153 2.245-68.997 15.937-23.684 44.36-36.747 72.382-37.895h.32l.642-.02zM204.578 132.7c3.158 8.12 5.878 10.826 14.45 21.2l-49.178 66.312-31.582 4.508c-.05-.988 50.584-70.452 66.31-92.02zm141.66 46.47l25.25 8.558 19.858 54.588-30.24-13.987-14.87-49.155zm-81.02 34.49c-4.832 51.443-16.178 62.002-31.903 53.103-4.022-8.38-9.722-10.872-18.056-10.62a46.59 46.59 0 0 0-2.567.16c-6.425.552-12.024.454-16.933 1.162a103 103 0 0 1-2.003-2.525c-4.025-5.232-3.38-5.424 12.184-27.194l32.927 7.815 2.465-17.314 23.888-4.59zm-75.75 14.567c-3.348 5.353-7.508 11.954-11.04 17.253-5.852 8.776-3.74 13.643 1.14 22.424-5.852 9.295-17.638 28.12.202 31.242 1.66.29 3.24.55 4.75.8-.347 7.186 4.304 23.376 14.648 26.272 11.277 3.158-1.81 19.408-9.48 18.957-9.282-.547-9.013-7.233-16.23-10.84-5.713-2.858-11.41.78-16.453-7.417l-4.79-91.52 37.254-7.174zm147.73 35.29l.462 23.465S278.115 296 273.153 300.51c-4.962 4.51-22.103 46.01-22.103 46.01l-24.81-10.38s18.936-47.35 24.35-51.86c5.41-4.51 86.61-20.76 86.61-20.76zm-132.44 3.987c.045-.003.097.003.14 0 .045-.003.097.003.14 0 .046-.003.097.003.142 0 .045-.003.095.003.14 0 .045-.003.095.002.14 0 .046-.002.095.002.14 0 .047-.002.094.002.14 0 .047-.002.094 0 .14 0 .096-.003.187.002.282 0 .145-.003.294 0 .44 0 4.193-.032 8.467.88 12.425 2.685 9.465 4.316 13.19 41.87 4.288 36.19-12.365-7.885-18.467-13.53-35.33-17.493-8.463-1.99-1.944-10.55 1.925-15.05 4.008-3.774 9.274-5.925 14.85-6.333zm217.59 74.967c.015-.003.026.003.04 0h.08c7.667 34.274 18.936 60.44 18.936 60.44-37.892 11.727-83.003 4.047-83.003 4.047 4.964-33.83 4.97-61.34 4.97-61.34 30.108 1.29 56.935-2.767 58.978-3.146zm-266.365 2.144c.06-.004.12.002.18 0 .06-.004.12 0 .18 0 .062-.003.12 0 .18 0 .062-.003.12 0 .18 0 4.06-.09 7.553.59 9.98 2.364 11.73 8.57 12.63 36.07 3.608 58.174-9.02 22.104-45.55 36.09-45.55 36.09L87.75 416.9c16.24-38.794 18.953-50.977 27.073-58.194 2.592-2.304 25.61-13.416 41.16-14.088zm63.986 1.883h.12c7.5-.447 64.783 27.47 122.52 77.153 0 0-6.305 26.63-23.446 50.54-61.35-56.388-124.503-79.394-128.112-85.71-3.61-6.315-.894-22.11 3.166-29.778 4.06-7.67 18.944-11.282 25.71-12.184h.02c.006 0 .015-.017.02-.02zm-1.766 12.205c-7.584.43-13.627 6.738-13.627 14.428 0 7.968 6.48 14.45 14.45 14.45 7.967 0 14.427-6.482 14.427-14.45 0-7.968-6.46-14.428-14.428-14.428-.187 0-.376-.007-.56 0-.06.003-.122-.003-.182 0-.03 0-.05-.002-.08 0zm-44.748 68.555c23.006 30.674-13.538 46.48-30.68 25.73 13.984-8.12 30.68-25.73 30.68-25.73z" fill-rule="evenodd"/></svg>