<svg xmlns="http://www.w3.org/2000/svg" width="512" height="512" version="1"><path d="M260.967.002v.022h-.044c-18.61.312-38.51 6.515-53.98 20.83L238.21 53.28a30.413 30.413 0 0 0-8.553 19.364c-30.666 5.02-60.31 17.428-77.653 25.053-3.496-4.777-9.123-7.9-15.49-7.9-10.605 0-19.212 8.61-19.212 19.212 0 4.805 1.764 9.21 4.683 12.58-7.334 11.455-26.986 42.563-25.38 44.57 1.96 2.452 18.082 9.292 34.264 8.38.6 13.57-.218 40.316-7.66 67.457-8.373 30.537-4.93 58.117 7.877 97.52 10.822 33.298 5.816 50.775-8.774 65.794-16.756 2.286-25.7 2.2-39.58-.37-16.12-2.986-21.03 6.354-19.495 18.116 2.09 16.02-3.475 43.187-23.675 71.746 49.455 25.076 125.477 9.766 126.074 1.4.398-5.57-6.866-35.71-14.112-60.258 12.286-4.664 34.496-12.888 38.487-12.888 5.57 0 59.893 18.11 61.286 25.075 1.393 6.967-2.786 55.726 0 59.21 2.786 3.482 16.226 3.827 18.817.7 3.03-3.66-.59-55.155 3.04-60.76 4.082-6.305 44.666-17.944 50.238-17.944 3.993 0 28.303 4.722 40.59 9.387-7.247 24.548-15.912 54.01-15.514 59.58.597 8.366 74.52 25.754 123.973.678-11.145-34.827-18.696-52.34-18.095-68.966.634-17.568-1.974-24.58-18.095-21.596-16.3 3.018-34.67 1.95-58.18-.33-23.335-2.26-29.954-10.45-34.133-13.236-4.18-2.787-7.308-46.32-7.308-46.32l-2.54 1.334c21.137-36.37 28.07-52.315 19.124-72.008-10.686-23.523-9.27-36.774-1.53-72.555 4.31-19.938 27.532-59.555 29.8-73.606 3.43-21.262 5.503-20.33-14.923-29.386-15.647-6.936-44.93-19.78-75.967-25.73.045-.677.065-1.347.065-2.035 0-8.845-3.763-16.827-9.78-22.406 9.156-9.978 19.973-22.056 29.977-33.76C301.58 7.046 282.617-.118 261.907 0c-.164 0-.317-.004-.48 0h-.198a.83.83 0 0 0-.045 0 .9.9 0 0 0-.088 0 .978.978 0 0 1-.044 0h-.086zm-2.823 58.77c.03-.003.057.003.088 0h.152a.795.795 0 0 0 .044 0h.042a.837.837 0 0 0 .044 0h.044a.927.927 0 0 0 .044 0h.043a.927.927 0 0 0 .044 0h.066c.063-.004.133.003.197 0 .096-.004.187.002.284 0 .13-.004.262 0 .394 0 8.43 0 15.273 6.844 15.273 15.273 0 8.428-6.844 15.272-15.272 15.272s-15.272-6.844-15.272-15.272c0-7.916 6.067-14.506 13.784-15.273zM231.428 92.03c.03-.003.06.003.088 0h.086a.63.63 0 0 1 .023 0h.044a.723.723 0 0 0 .042 0h.065a1.574 1.574 0 0 1 .044 0h.067a1.985 1.985 0 0 1 .043 0h.09c.11-.006.217 0 .326 0 6.43-.1 7.69 5.198 4.135 10.087-3.94 5.418-10.84 12.8-15.27 15.754-4.434 2.957-20.33 4.174-31.027 6.413-10.59 2.216-23.628 6.89-30.523 8.86-6.895 1.972-7.395-6.384-7.395-13.28 0-7.052 8.865-10.358 26.103-15.776 17.24-5.418 43.352-10.337 51.725-11.815.47-.082.91-.187 1.335-.24zm54.417.066c.025-.003.04.002.065 0a1.13 1.13 0 0 1 .066 0 1.23 1.23 0 0 1 .066 0h.153c.052-.003.1.002.153 0 .107-.005.22 0 .328 0 .593-.004 1.228.06 1.882.175 8.373 1.48 33.48 7.384 50.718 12.8 17.24 5.42 31.53 12.664 31.53 19.716 0 11.82-2.95 18.206-10.83 15.25-6.716-2.517-20.94-8.614-31.53-10.83-10.7-2.24-27.58-5.403-32.01-8.358C292 117.89 284.62 110.49 280.68 105.07c-3.478-4.783-1.18-12.306 5.165-12.974zm-26.497 32.295h.11c2.552-.12 5.135 1.785 6.082 5.32 2.326 8.68 5.33 17.32 12.822 25.6 9.358 10.342 3.19 33.145-20.196 32.995-23.387-.15-29.826-23.03-16.76-34.462 9.145-8.002 10.216-15.806 12.318-23.653 1.002-3.74 3.253-5.58 5.558-5.777h.044a.2.2 0 0 0 .02-.022zm-125.812 3.328h.064l.045.022c1.6.827 14.266 24.323 11.728 28.553-2.955 4.925-19.702 5.428-23.15 1.487-2.99-3.417 11.313-30.04 11.313-30.04v-.023zm222.347 28.707h.022a2.772 2.772 0 0 1 .11 0 3.03 3.03 0 0 1 1.64.372c6.416 3.53-26.6 76.24-93.58 76.34-75.43.114-108.756-52.452-102.445-59.098 9.76-10.28 28.035 34.167 97.017 33.98 58.708-.16 86.1-50.67 97.236-51.595zm-200.576 54.723c12.427 26.485 13.51 39.115 8.73 59.82-4.592 19.89-9.993 37.553 18.117 80.936-1.386 13.552-4.186 36.807-7.133 38.77-3.053 2.038-12.243 6.21-26.08 9.738 1.68-5.09 3.52-11.79 5.296-20.5 5.418-26.598-1.976-32.498-12.32-69.93-7.27-26.315 1.538-62.852 13.392-98.833zm95.31 36.08c.072-.002.148.002.22 0 .142-.004.276.003.415 0 .21-.005.412.002.613 0 2.807-.032 4.704.17 5.273.635l.022.022.02.02c3.45 3.45 4.434 33.99.986 38.423-3.448 4.433-76.702-8.882-75.86-22.165.497-7.815 50.025-16.358 68.31-16.935zm-59.93 40.588l16.74 5.405-1.97 13.304 51.9.875c1.277 3.417 2.007 7.913 1.794 13.893-.156 4.417-.466 7.478-1.027 9.846v.02c-6.52 8.29-26.63 3.91-27.044 8.863-.25 2.985 17.235 12.8 30.04 11.815 12.807-.985 26.596-6.41 27.09-11.334.197-1.988-11.884-2.53-16.258-9.365v-8.86c0-7.59-1.206-9.13 1.62-14.618l49.602.832c3.94 7.88.986 22.665-.984 28.576-1.97 5.91-11.318 12.314-22.646 21.18-11.33 8.865-25.616 21.18-39.407 21.18-13.79 0-25.618-11.342-33.498-16.76-6.315-4.34-27.56-10.874-32.01-22.646-6.405-16.935-3.94-52.207-3.94-52.207zm73.606 101.46c.048-.004.104.002.153 0 .05-.004.104 0 .153 0 .047-.003.102 0 .15 0 .05-.003.105 0 .154 0 .05-.003.104 0 .153 0 .05-.003.104 0 .154 0 .05-.003.103 0 .154 0 .102-.005.205.002.306 0 .157-.005.306.002.46 0 .268-.006.527 0 .788 0 3.63-.008 6.617.426 7.483 1.465 2.465 2.956-8.86 39.208-13.28 39.407-5.43.246-13.796-34.482-11.333-37.437 1.396-1.676 8.31-3.106 14.507-3.436zM88.833 418.18h.134c.058-.005.116 0 .175 0 4.92-.118 12.492 2.1 20.065 2.1 10.448 0 22.996-2.787 27.175 0 4.18 2.786 13.223 59.204 10.437 62.687-2.787 3.482-5.576 6.26-34.134 6.957-28.56.697-45.263-2.078-48.05-6.257-2.786-4.18 3.484-15.518 9.06-31.355 6.44-18.293 7.653-29.25 11.136-32.732.898-.898 2.256-1.296 3.96-1.378h.044v-.022zm328.03 2.515c.093-.004.193.004.285 0 .096-.004.19.004.285 0 .098-.004.186.004.284 0 .102-.004.205.003.307 0 .104-.004.2.003.306 0 .108-.004.22.003.328 0 .112-.003.217.003.328 0 .115-.003.235.003.35 0 .12-.003.232.003.35 0 .123-.003.25.003.372 0 .127-.003.246.002.372 0 .13-.003.265.002.394 0 .134-.002.26.002.394 0 .285-.004.57.003.853 0 6.828-.07 12.96.268 15.056 2.363 3.483 3.483 4.697 13.74 11.137 32.033 5.575 15.838 7.666 28.577 4.88 32.756-2.787 4.18-19.49 6.954-48.05 6.258-28.558-.697-37.626-4.176-40.413-7.66-2.787-3.48 11.836-59.2 16.016-61.985 4.18-2.788 17.427-3.48 27.875-3.48 2.585 0 5.43-.18 8.295-.285zm-230.114 17.68c-8.753.92-15.56 8.424-15.56 17.416 0 9.614 7.805 17.418 17.418 17.418 9.61 0 17.415-7.804 17.415-17.417 0-9.61-7.804-17.416-17.416-17.416h-.11c-.15 0-.29-.005-.438 0-.075.002-.147-.004-.22 0-.073.004-.147-.004-.22 0h-.086a1.985 1.985 0 0 1-.044 0h-.066a1.574 1.574 0 0 1-.043 0h-.065a1.43 1.43 0 0 1-.044 0h-.064a1.323 1.323 0 0 1-.045 0h-.065a1.312 1.312 0 0 1-.044 0h-.065a1.134 1.134 0 0 1-.044 0h-.194zm135.83 4.88c-8.75.92-15.556 8.423-15.556 17.415 0 9.612 7.804 17.416 17.417 17.416 9.613 0 17.417-7.804 17.417-17.417 0-9.614-7.804-17.418-17.416-17.418-.112 0-.216-.002-.33 0-.11.002-.216-.004-.326 0-.073.003-.146-.003-.22 0h-.084a1.968 1.968 0 0 1-.045 0h-.065a1.574 1.574 0 0 1-.044 0h-.066a1.43 1.43 0 0 1-.043 0h-.066a1.312 1.312 0 0 1-.042 0h-.065a1.323 1.323 0 0 1-.044 0h-.066a1.323 1.323 0 0 1-.044 0h-.067a1.124 1.124 0 0 1-.043 0h-.197z" fill-rule="evenodd"/></svg>