<svg xmlns="http://www.w3.org/2000/svg" width="512" height="512" version="1"><path d="M275.835.004c-.054.007-.1.02-.15.02-.317.002-.645-.003-.963 0-.157.003-.313-.002-.47 0-.157.004-.314-.002-.47 0-.157.004-.316-.003-.472 0-39.83.984-78.722 21.61-101.69 53.884-5.323 7.558-9.435 15.955-13.865 24.096a10.823 10.823 0 0 0-4.088-.792c-6.016 0-10.892 4.875-10.892 10.892 0 2.294.693 4.428 1.905 6.184-5.475 3.737-11.403 6.934-16.478 11.235-11.297 8.47-29.86 16.588-37.234 28.782-2.185 5.205 1.36 11.912 7.233 12.22 12.257 2.938 31.778 1.136 44.234 1.968 7.483.05 15.133.255 22.726.92a177.622 177.622 0 0 0-5.822 6.184c-7.07 8.432-16.31 16.44-18.596 27.648-.37 5.653 1.175 10.982 3.21 16.178-1.25 1.65-2.67 3.92-4.494 7.018-6.812 11.583-2.05 24.515 10.893 30.646 1.184.56 2.708 1.13 4.495 1.648-3.593 9.636-8.167 21.01-2.568 30.772 5.137 9.19 15.083 13.502 25.337 14.658-1.262 15.163-5.36 64.313-5.95 71.366-.68 8.174-2.035 14.996-6.804 22.49-.533.837-1.618 3.01-3.553 5.906-1.89 2.83-5.778 2.274-13.653 2.44-16.36.344-20.487 18.928-14.145 27.925 3.307 4.696 4.967 8.078 3.914 10.36-1.02 2.215-13.01 22.34-18.96 32.57-2.18 2.95-4.893 1.447-13.117 1.626-20.732.45-23.912 33.816-3.98 40.958 6.573 2.355 9.872-3.286 11.448-6.55 1.394-2.882 63.27-109.113 65.653-113.2 4.768-8.175 7.496-17.016 8.858-25.872 1.046-6.794 3.7-50.452 4.88-70.423 5.442-1.13 10.23-3.853 14.508-7.32 33.194-10.796 104.724-25.274 125.934-23.988 0 8.174 5.435 18.403 1.348 18.403-28.612 3.406-116.542 16.946-118.53 25.893-1.362 6.13-6.12 44.26-2.033 49.71 2.384 3.178 32.023-9.533 70.853-15.664 38.83-6.13 59.94-8.86 59.94-8.86s4.757 10.918 2.032 15.686c-55.86 11.58-138.27 27.92-140.315 30.644-2.035 2.714-83.833 142.645-83.8 143.738 86.518-27.25 124.663 1.367 192.786-15.664 68.124-17.03 111.05-53.808 109.01-59.94-2.046-6.13-61.318-109.003-62.68-116.496-1.468-8.07-19.89-68.383-7.49-84.484 6.64-8.62 27.343-6.463 42.113-3.895 7.32.266 16.735-3.165 17.847-11.32 1.28-19.246-14.63-35.142-12.196-54.545 1.778-11.276 4.6-22.545 5.863-33.94 3.352-23.845 2.357-49.412-9.758-70.766-15.503-28.63-44.743-48.094-76.076-55.447-14.725-3.83-29.932-5.595-45.152-5.5-.12 0-.242-.004-.364 0h-.065a1.516 1.516 0 0 1-.064 0h-.02c-.02.002-.048 0-.066 0zm-.278 10.956c.016-.002.027 0 .043 0h.15c.117-.005.245 0 .363 0 14.945-.077 29.9 1.644 44.297 5.564 26.83 6.533 55.566 25.405 63.983 40.765 8.264 15.08 6.506 31.326-5.243 35.585-27.965 10.137-40.26-28.67-82.43-24.523-41.554 4.087-62.662 26.56-88.55 51.764a1.09 1.09 0 0 0 0 .043v.02l.022.043c1.305 1.442 37.15 5.09 75.582 19.666 38.67 14.667 36.272 44.663 109.628 47.505 3.224 9.656 8.313 18.754 9.352 28.996 1.152 3.607-3.648 4.2-6.078 4.13-14.418-2.414-28.99-3.91-43.633-4.557-19.594-2.138-35.27-3.784-54.93-5.22-13.976-.44-28.65-6.452-39.568-15.473-12.245-8.874-19.757-21.156-29.895-31.99-17.336-17.856-43.306-23.646-67.45-25.166-17.187-1.61-34.534.558-51.658-1.156 6.815-8.444 15.248-15.363 23.946-21.74 7.497-6.324 16.745-10.38 23.988-16.885.01-.004.034-.017.043-.02.002-.006.02-.02.02-.023 4.003-1.523 6.876-5.32 7.02-9.822 4.77-8.31 8.682-17.17 13.994-25.208 20.788-31.552 58.022-51.538 95.76-52.257.06 0 .098-.015.15-.02a1.363 1.363 0 0 0 .065 0c.02-.002.064 0 .084 0h.022c.018 0 .046-.002.064 0 .005-.002.018 0 .022 0 .005-.002.016 0 .022 0h.107c.184-.005.376 0 .558 0 .05-.002.103-.016.15-.023zm-74.255 71.987c-5.822.22-10.464 5.016-10.464 10.892 0 6.015 4.875 10.912 10.892 10.912 6.017 0 10.892-4.897 10.892-10.914 0-6.018-4.875-10.893-10.892-10.893-.14 0-.288-.005-.428 0zm41.835 11.3c.022-.003.043 0 .064 0a1.388 1.388 0 0 1 .088 0 1 1 0 0 0 .064 0h.044c.066-.006.126.003.193 0h.02a3.936 3.936 0 0 1 .107 0c.186-.01.368 0 .556 0 6.018 0 10.894 4.874 10.894 10.89 0 6.017-4.876 10.893-10.893 10.893-6.015 0-10.89-4.876-10.89-10.892 0-5.627 4.283-10.313 9.757-10.892zm53.755 15.663c.02-.002.043.002.064 0a1.174 1.174 0 0 1 .086 0 .954.954 0 0 0 .064 0h.043c.064-.005.124.005.19 0h.022a3.537 3.537 0 0 1 .107 0c.033-.002.074 0 .106 0h.02c.164-.007.33 0 .493 0 6.016 0 10.89 4.875 10.89 10.892 0 6.017-4.874 10.914-10.89 10.914-6.017 0-10.893-4.897-10.893-10.914 0-5.605 4.25-10.284 9.694-10.892zm46.95 25.87h.02a.86.86 0 0 1 .044 0c.01.002.033 0 .043 0 .16 0 .31.023.47.023 6.015 0 10.89 4.875 10.89 10.892 0 6.017-4.875 10.892-10.892 10.892s-10.914-4.875-10.914-10.892c0-5.692 4.384-10.404 9.95-10.892a.884.884 0 0 1 .065 0h.02a3.09 3.09 0 0 1 .13 0 3.537 3.537 0 0 1 .106 0h.022l.042-.022zm-167.278 17.27l8.047 15.472 29.06-3.81c.69.476 1.38.954 2.056 1.456 12.927 10.226 19.44 27.308 32.14 37.684.455.42.914.834 1.37 1.24-10.717 15.284-21.837 30.28-33.296 45.025-7.582 8.905-14.665 20.4-26.9 23.047-9.3.79-20.56.2-26.535-7.982-4.757-7.94.906-16.518 3.338-24.374 20.258 2.122 49.407-3.384 43.762-39.823-12.944 17.712-34.046 19.07-38.134-4.772 0 0-10.22-.003-17.03-.685-.1-.01-.204-.012-.3-.022-1.386-3.643-2.396-7.39-2.42-11.34 3.275-8.22 9.883-14.612 15.687-21.186 2.38-2.614 6.554-7.39 9.158-9.93zm90.562 67.215c6.6 7.612 13.152 15.264 19.75 22.876-13.687 2.626-27.37 5.274-41.064 7.877 6.778-9.76 13.537-19.53 20.308-29.296l1.006-1.454zm25.25 142.56c.047-.002.104.004.15 0 .047-.002.082.003.13 0 .045 0 .102.003.15 0 .046 0 .102.003.148 0 .29-.01.566 0 .856 0 12.41 0 22.49 10.06 22.49 22.47 0 12.41-10.08 22.49-22.49 22.49-12.41 0-22.47-10.08-22.47-22.49 0-11.93 9.29-21.732 21.037-22.47zm32.784 18.405c.413.29 13.638 9.636 14.98 17.012 1.362 7.494 2.032 29.973 6.12 32.698 4.087 2.725 19.08 4.087 17.718 16.35-1.362 12.26-8.174 17.707-16.35 15.663-8.173-2.043-20.423-3.406-51.078 0-30.656 3.406-57.24 15.67-68.82 17.034-11.58 1.362-18.38-12.254-13.61-23.154s14.97-6.13 17.012-12.262c2.044-6.13 4.786-38.155 23.86-55.186 6.13 12.943 15.665 19.75 15.665 19.75s-19.748 36.102-14.98 40.19c4.77 4.086 64.023-3.393 67.43-9.524 3.405-6.132-8.176-32.7-8.176-32.7s6.137-6.13 8.86-12.26c2.64-5.94 1.45-13.165 1.37-13.61z" fill-rule="evenodd"/></svg>