<svg xmlns="http://www.w3.org/2000/svg" width="512" height="512" version="1"><path d="M229.49.002c-14.56.638-21.01 8.61-22.4 33.42-1.68.09-3.385.21-5.106.308-20.71 1.172-28.115 11.344-34.035 29.104-5.92 17.76-20.713 100.132-19.726 101.12-6.906 42.426 1.174 45.125 24.173 48.345 5.422.757 11.382 1.21 17.533 1.554-7.583 11.136-15.153 22.29-22.112 33.816h-.022c-5.973 2.827-15.455 3.964-27.154-3.615 0 .856 4.556 34.69 27.066 35.02-3.27 11.045-6.018 23.115.022 33.51 4.07 6.21 10.654 9.092 17.708 10.454l-.548 26.187c-26.587 2.49-53.124 6.548-79.028 12.91-12.634 4.547-23.85 17.27-21.74 31.404 2.315 9.494 13.117 13.803 22.135 13.085 12.2.727 24.43.688 36.643.416-5.106 6.49-4.885 15.845-.614 22.706 4.778 10.846 9.596 21.908 15.89 31.953-3.803 12.59-7.614 25.17-11.42 37.76 50.035 14.355 104.23 13.27 154.046-1.644 5.574 2.28 11.15 4.573 16.722 6.86 5.27-2.924 9.827-6.68 13.697-11.024 38.298 15.053 62.867 22.268 70.154 16.196 8.88-7.4 25.148-19.24 26.628-48.347 1.48-29.106-9.358-59.19-30.57-68.07-5.7-2.385-13.46-5.98-21.96-9.862 14.208-13.308 24.645-23.184 30.11-52.795 5.472-29.632-6.9-54.733-23.36-80.87 7.298-31.9 12.426-80.948 7.735-108.153-4.933-28.613-8.668-79.233-32.566-85.34-41.85-10.69-70.23-16.734-91.41-20.008-.334-27.082-7.79-34.055-27.44-36.006-2.685-.266-5.156-.413-7.452-.394-.183 0-.366-.004-.547 0-.12.002-.23-.004-.35 0-.06 0-.116-.002-.174 0-.06.002-.118-.002-.176 0-.06.002-.12-.002-.176 0-.058.002-.118-.003-.175 0zm27.152 47.82a7661.84 7661.84 0 0 0 27.943 6.837c1.317 8.492 3.146 20.625 4.733 32.302 2.88 21.19.848 38.527 7.43 59.063 6.38 12.99 22.895 24.683 37.607 20.776 13.28-5.307 16.893-20.253 17.204-33.442.507-10.79-10.95-47.168-18.98-66.844 8.757 1.92 17.942 2.513 25.575 7.56 16.63 21.077 22.22 50.06 16.7 76.202-3.302 21.598-19.876 42.164-42.276 45.212-29.564 3.548-58.04-18.932-65.003-47.14-.843-7.14-1.49-14.303-2.06-21.478-16.21 28.05-36.78 29.805-52.094 29.805-16.744 0-50.914-19.54-43.24-51.633 21.922 7.737 49.784 35.133 94.085 5.106-1.466-20.212-3.028-40.405-7.3-60.246l-.328-2.082zm53.19 163.01c.072-.005.146.002.22 0 .073-.004.144 0 .218 0 11.678-.278 25.122 10.942 17.467 22.813-7.274 11.278-21.616 35.58-35.57 50.23a82.71 82.71 0 0 1-2.914 2.894c10.155 7.182 20.52 14.053 27.7 18.714-9.25 4.96-33.995 6-51.698 6.07 8.708-11.292 17.817-18.917 23.998-24.786a453.008 453.008 0 0 1-12.755-9.337 38.86 38.86 0 0 1-1.93-1.556c-.016-.016-.047-.05-.065-.065l-.043-.02-.022-.024-.022-.022v-.022l-.022-.022-.088-.064-.044-.044c-.08-.07-.162-.127-.24-.197-.048-.043-.085-.09-.132-.132l-.022-.022-.044-.042-.022-.022h-.022l-.02-.02c-.03-.03-.06-.062-.09-.09-.015-.013-.028-.03-.043-.043-.024-.022-.042-.043-.066-.066l-.02-.022h-.02l-.023-.02-.022-.023v-.02l-.022-.023-.022-.023-.043-.022-.022-.022-.022-.02v-.023l-.022-.022-.064-.043c-.004-.004-.018-.02-.022-.022l-.022-.022-.02-.02-.045-.023-.022-.022-.022-.022c0-.003-.018-.02-.02-.022-.02-.02-.048-.064-.066-.086a.2.2 0 0 0-.022-.02.54.54 0 0 0-.022 0l-.022-.023-.02-.02-.023-.045c-.002 0-.02-.02-.022-.02h-.022l-.02-.023-.023-.022-.022-.043-.022-.022-.044-.044-.067-.065-.022-.022h-.02l-.022-.022-.02-.02V274l-.023-.022-.022-.02a.464.464 0 0 0-.044-.023l-.02-.022-.023-.02v-.023c-.004-.003-.017-.017-.022-.02l-.043-.023-.023-.02-.023-.023v-.02c-.124-.127-.25-.246-.373-.374-.024-.027-.04-.04-.065-.067l-.045-.044c-.02-.022-.046-.045-.066-.066-.02-.023-.045-.043-.067-.066l-.042-.044-.065-.087-.044-.044c-.027-.03-.06-.058-.087-.09a.2.2 0 0 1-.02-.02c-.08-.084-.144-.158-.22-.24-.03-.033-.06-.058-.088-.09-.004-.007-.02-.036-.022-.043-.03-.03-.06-.055-.088-.087-.055-.06-.1-.114-.153-.175l-.045-.044c-.017-.02-.05-.066-.066-.087l-.044-.044c-.064-.074-.11-.146-.175-.22l-.02-.02-.067-.067-.02-.022a1.192 1.192 0 0 1-.023-.043c-.03-.032-.062-.055-.09-.088l-.02-.023v-.02l-.067-.067-.022-.022-.02-.043-.065-.066a.2.2 0 0 1-.022-.02l-.022-.045-.043-.044c-.016-.02-.05-.065-.065-.087-.036-.045-.072-.086-.11-.13a.236.236 0 0 0-.02-.023c-.065-.078-.135-.16-.198-.24v-.022c-.026-.033-.062-.055-.088-.088-.063-.08-.134-.16-.197-.24v-.023c15.85-16.02 20.304-37.284 29.06-52.773 2.54-4.494 6.813-6.547 11.395-6.772zm-106.752 3.68c17.71.844 34.802 1.983 42.823 8.153 10.374 7.98 10.887 28.938 21.28 44.708-9.68 10.505-19.46 20.916-30.2 30.31-9.78 9.522-23.168 15.605-37.015 15.363-7.68-.672-17.203.268-22.595-6.334-4.59-9.553-.094-19.873 2.74-29.41 13.18 11.664 45.75 13.555 48.587-29.543-6.672 7.91-31.81 18.363-49.048 2.167 7.19-12.01 15.387-23.666 23.428-35.415zm166.187 47.47c12.834 12.56 19.02 31.746 19.57 54.833.605 25.388-2.57 30.408-28.643 59.896-13.81-6.042-27.522-11.464-36.205-12.82-.047-7.554.41-18.28 2.06-33.114 2.06-18.543 8.014-32.864 13.52-42.626 11.28 16.306 19.01 38.31 9.49 66.338 18.247-21.29 24.305-35.677 5.676-81.548 5.175-5.04 10.433-8.6 14.53-10.958zm-152.27 59.983c10.628 12.605 14.64 29.25 15.034 41.793-10.492-5.117-21.21-10.23-32.5-13.28l.527-26.212a59.45 59.45 0 0 0 16.94-2.3zm99.06 1.38l-5.83 43.81c-8.582 3.36-22.198 7.362-35.767 9.797-5.143-.2-10.29-.4-15.43-.592-6.126-1.556-11.616-4.797-17.203-7.802 2.566-17.562 7.78-31.49 14.004-42.714l60.227-2.498zm-126.017 36.71l1.425.022c16.902 3.917 32.374 11.92 47.82 19.833.63.494 1.063.832 1.25.965v-.022c.005-.092.015-.194.02-.285 4.257 2.178 8.513 4.338 12.8 6.4.078.005.162.015.24.02-.473 7.953-1.664 20.934-4.623 34.694-3.383 15.73-9.09 31.09-12.34 39.207-10.075 1.11-19.895 4.833-29.87 7.055-8.1.715-15.95 4.968-24.24 3.703-10.727-5.798-16.292-17.924-21.608-28.557-3.28-8.84-10.36-16.51-10.41-26.3 2.222-7.197 10.81-8.836 17.073-10.87 4.966.024 7.703-7.932 2.608-10.013-18.63-1.216-37.4.794-56.083-.11-6.15-1.063-14.365 1.444-18.694-4.077-1.362-8.287 5.943-15.448 13.062-18.52 26.66-6.917 54.134-10.686 81.57-13.148zm109.03 17.84c.833.03 1.667.057 2.5.087-.835-.03-1.664-.057-2.5-.088zm26.037.854c.088 0 .175.017.263.02-.088-.003-.175.003-.263 0v-.02zm-84.53 2.167v.022h.023v-.023h-.022zm21.83 6.685c24.383 1.533 48.906 1.656 73.33 2.76 2.462 15.68 2.784 31.703 2.278 47.58.108 19.632-5.043 41.26-21.192 53.803-23.61-8.454-46.84-18.73-70.262-28.162 3.326-7.22 9.156-21.244 12.538-37.475 3.152-15.132 3.48-29.845 3.31-38.507zm101.797 59.917c.044-.004.088 0 .132 0 .066-.005.13 0 .197 0a10.423 10.423 0 0 1 4.208.744c6.705 2.674 9.37 11.826 5.94 20.426-3.43 8.6-11.66 13.413-18.364 10.74-6.703-2.674-9.348-11.826-5.917-20.426 2.68-6.72 8.284-11.154 13.805-11.484zm-205.722 14.66l.153.24c-.05-.075-.105-.162-.153-.24zm188.102.68c-.032.133-.077.26-.11.395.034-.134.078-.26.11-.395zm-187.27.614c.078.118.164.233.242.35-.076-.114-.166-.235-.242-.35zm187.073.175c-.033.132-.076.26-.11.394.035-.134.076-.26.11-.395zm-185.78 1.774c.08.117.162.213.242.33-.08-.116-.165-.214-.243-.33zm3.113 4.274c.08.103.14.202.22.306-.08-.1-.143-.206-.22-.307zm73.132 2.037l-1.38.373 1.38-.373zm-71.423.132c.122.15.245.308.37.46-.123-.15-.25-.31-.372-.46zm1.313 1.577c.05.058.104.117.153.175l-.153-.176zm63.227.13c-.46.122-.92.253-1.38.374.46-.12.92-.25 1.38-.372zm-62.854.308c.11.126.22.247.33.372-.11-.122-.222-.25-.33-.372zm59.392.592c-.46.12-.92.254-1.38.372.46-.12.92-.254 1.38-.373zm-6.224 1.6c-.46.115-.92.214-1.38.328.46-.114.92-.213 1.38-.33zm121.85.175c-.035.084-.07.155-.108.24.034-.077.076-.164.11-.24zm-171.423 1.336c.05.04.105.067.155.108-.05-.04-.104-.067-.153-.11zm.528.415l.087.067c-.03-.023-.058-.04-.087-.065zm.306.24l.088.068-.087-.066zm1.03.77c.054.036.1.072.154.11.05.033.104.075.153.11-.053-.04-.1-.075-.152-.11-.054-.038-.1-.073-.154-.11zm.33.22c.053.034.098.07.153.11.03.02.056.043.087.064-.027-.018-.06-.048-.087-.066-.05-.033-.104-.076-.154-.11zm33.377.152c-.65.147-1.3.315-1.95.46.646-.143 1.305-.315 1.95-.46zm-32.062.68c.052.03.102.078.154.11-.056-.034-.097-.077-.153-.11zm28.732.087c-.466.1-.94.184-1.404.284.465-.1.938-.183 1.403-.285zm-27.703.48c.082.044.16.11.24.155-.086-.046-.153-.11-.24-.155zm24.217.264c-.465.098-.937.188-1.403.285.468-.098.94-.187 1.405-.286zm-23.515.11c.08.04.156.07.24.11-.084-.04-.16-.07-.24-.11zm.786.372c.06.027.116.04.176.066-.06-.026-.116-.04-.176-.066zm.35.154c.06.026.116.04.176.066-.06-.025-.115-.04-.175-.066zm18.892.088l-1.403.285 1.402-.285zm-18.08.24c.06.024.135.044.196.067-.06-.024-.136-.043-.197-.067zm.92.33c.056.02.118.047.175.066-.062-.02-.114-.045-.176-.066zm13.653.13c-.05.02-.102.05-.152.067.056-.02.097-.047.153-.067zm-12.447.242c.062.018.135.048.197.066-.063-.017-.135-.048-.197-.066zm.855.22c.15.035.308.075.46.11-.158-.036-.303-.072-.46-.11zm9.796.065zm-8.657.197c.063.012.133.01.196.022-.063-.012-.133-.01-.197-.023zm7.516.043c.032-.01.056.01.088 0-.057.01-.117.012-.174.022a.703.703 0 0 1 .086-.022zm-7.144.022c.062.01.132.01.196.022-.065-.01-.135-.01-.198-.023zm6.75.043c.03-.01.076.01.11 0-.066.01-.135.012-.2.022a.56.56 0 0 1 .09-.022zm-6.16.043c.064.01.112.013.176.022-.06-.01-.12-.013-.177-.022zm5.874 0h.088c-.065.01-.112.013-.176.022a.427.427 0 0 1 .087-.022zm-.482.066c.032 0 .077.01.11 0-.065.01-.134.014-.198.02-.064.01-.133.016-.197.023.064-.01.133-.015.197-.022.032 0 .056-.017.088-.02zm-3.945.087c.064.01.11.017.175.022a1.75 1.75 0 0 0-.175-.023zm.372.022c.064 0 .132.02.197.02-.065 0-.133-.017-.198-.02zm2.323 0h.087c-.058 0-.117.02-.175.02.032 0 .055-.02.088-.02zm-1.84.02c.063 0 .13.02.196.023-.066 0-.134-.02-.198-.022zm1.27 0h.087c-.064 0-.132.02-.197.023.032 0 .077-.02.11-.022zm151.087 1.535c-.05.08-.083.162-.132.24.048-.076.086-.163.133-.24zm-4.23 6.092c-.083.106-.157.224-.24.33.083-.106.156-.224.24-.33zm-.614.79l-.242.284c.08-.097.16-.186.24-.284z" fill-rule="evenodd"/></svg>