<svg xmlns="http://www.w3.org/2000/svg" version="1" height="512" width="512"><path d="M45.965.002l-.024.024c-3.93.787-14.956 69.2-7.88 88.862 3.185 8.842 10.038 16.407 16.6 22.06-30.6 54.892-11.282 101.086 13.294 120.287 25.167 19.66 44.83 42.457 29.102 69.197-15.73 26.74-31.08 10.486-34.61 29.892-3.426 18.832 33.083 54.094 50.347 52.694 18.074-1.465 5.493-36.187 21.222-35.4L193.795 512l36.17-5.51-46.965-146c51.27 5.193 59.493-8.817 80.907-9.832 27.797-1.318 44.48 10.006 74.51 7.782 30.028-2.225 34.494-10.002 71.197-18.9 36.703-8.897 42.263 5.56 54.498 1.112 12.234-4.448 18.767-20.4 2.223-63.416-16.683-43.376-28.335-51.77-42.27-84.513-16.945-39.82-2.423-57.163-20.034-98.99-14.424-34.263-22.986-41.504-29.272-41.23h-.025c-.01-.002-.037 0-.048 0a.053.053 0 0 0-.025 0h-.026c-.002-.002-.022 0-.024 0-.002-.002-.022 0-.025 0v.023h-.05c-1.38.1-2.654.562-3.853 1.16-6.674 3.338-27.8 17.812-62.28 20.037-34.48 2.224-58.953-8.92-94.544-5.584-35.59 3.335-40.054 23.37-74.533 27.816-17.675 2.28-30.666 1.07-39.132-.668 3.35-10.977 5.565-17.925 2.373-28.41C98.806 54.535 50.256-.348 45.99 0h-.025zM60.887 43.26c12.583 8.65 25.16 23.608 27.52 31.472 2.36 7.865-4.718 23.58-9.437 25.94-4.718 2.36-22.032-3.145-25.964-14.156-3.932-11.01.803-20.45 7.88-43.257zm305.346 34.215h.42c3.47-.105 6.898 1.11 9.76 3.014 9.23 7.302 9.787 21.252 5.707 31.47-8.457 16.122-24.6 26.14-35.896 40.12-4.814 5.827-9.008 14.685-17.466 15.267-6.043-.73-5.535-8.616-4.076-12.896 7.303-20.242 15.81-40.317 24.507-60.08 2.966-7.495 7.775-16.535 16.945-16.85h.07l.026-.05zm-250.38 37.773h.05c.03 0 .066.002.1 0 .053-.004.118.003.172 0 .055-.003.118.003.173 0 .056-.003.117.002.173 0 .06-.002.12.002.176 0 .116-.005.228.003.346 0 4.03-.1 9.203.802 14.897 1.902 16.29 3.146 14.07 15.508 38.54 28.855 24.467 13.346 50.052 16.67 43.38 28.904-6.674 12.23-27.323.523-58.945-8.897-20.652-6.15-37.955-16.41-44.493-34.462-4.255-11.746-1.31-15.755 5.434-16.304zm-21.937 9.807l65.27 202.132-18.875 7.065-66.85-202.107 20.458-7.09zm-30.682 16.528l27.52 84.933c-29.098-18.088-45.61-36.173-27.52-84.933zm202.13 8.25c11.01 19.662 49.152 29.892 51.905 48.767 2.75 18.875-17.305 25.55-14.16 40.886 3.147 15.336 5.108 7.95 7.857 20.85 5.11 23.987-42.476 31.854-44.05 5.114-.973-16.326 10.24-16.51 7.487-27.52-2.753-11.01-36.19-17.324-40.516-32.66-4.325-15.335 16.53-36.955 31.474-55.436zm67.147 87.775h.3c.09-.006.183.002.273 0 .22-.004.418.023.642.05 12.34.052 24.132 5.205 35.846 8.646 17.06 6.395 34.955 10.25 51.534 17.713 14.66 6.55 29.86 18.032 31.598 35.23-.017 5.007 2.107 11.946-2.272 15.736-4.564 1.967-10.15 1.243-14.847.05-13.186-6.54-23.37-17.805-35.005-26.682-12.903-11.5-28.325-19.34-43.925-26.48-9.354-5.105-20.322-8.586-27.57-16.577-2.743-2.946-.08-7.183 3.434-7.682zm-93.8 3.657c.064-.005.136.003.198 0 1.73-.09 3.04.39 3.854 1.507 8.99 12.326-15.56 26.695-25.57 47.827-10.01 21.13-15.583 55.61-23.37 55.61-7.453 0-16.15-7.43-21.046-17.52l-3.41-10.597c-.59-3.552-.638-7.2 0-10.82 3-16.995 53.167-64.817 69.346-66.01zM112.79 305.15l7.857 22.037c-7.865 26.74-7.085 43.898-28.312 26.73-26.74-21.628-10.94-26.71-.89-34.018 7.95-5.78 15.447-10.426 21.346-14.75z" fill-rule="evenodd" stroke="#000" stroke-width="5"/></svg>